<?xml version="1.0" encoding="UTF-8"?>
<!--Generator: Apple Native CoreSVG 149-->
<!DOCTYPE svg
PUBLIC "-//W3C//DTD SVG 1.1//EN"
       "http://www.w3.org/Graphics/SVG/1.1/DTD/svg11.dtd">
<svg version="1.1" xmlns="http://www.w3.org/2000/svg" xmlns:xlink="http://www.w3.org/1999/xlink" width="3300" height="2200">
 <!--glyph: "", point size: 100.0, font version: "17.0d8e1", template writer version: "58"-->
 <g id="Notes">
  <rect height="2200" id="artboard" style="fill:white;opacity:1" width="3300" x="0" y="0"/>
  <line style="fill:none;stroke:black;opacity:1;stroke-width:0.5;" x1="263" x2="3036" y1="292" y2="292"/>
  <text style="stroke:none;fill:black;font-family:SF Pro,SF Pro Display,SF Pro Text,sans-serif;font-size:13;font-weight:bold;" transform="matrix(1 0 0 1 263 322)">Weight/Scale Variations</text>
  <text style="stroke:none;fill:black;font-family:SF Pro,SF Pro Display,SF Pro Text,sans-serif;font-size:13;text-anchor:middle;" transform="matrix(1 0 0 1 559.711 322)">Ultralight</text>
  <text style="stroke:none;fill:black;font-family:SF Pro,SF Pro Display,SF Pro Text,sans-serif;font-size:13;text-anchor:middle;" transform="matrix(1 0 0 1 856.422 322)">Thin</text>
  <text style="stroke:none;fill:black;font-family:SF Pro,SF Pro Display,SF Pro Text,sans-serif;font-size:13;text-anchor:middle;" transform="matrix(1 0 0 1 1153.13 322)">Light</text>
  <text style="stroke:none;fill:black;font-family:SF Pro,SF Pro Display,SF Pro Text,sans-serif;font-size:13;text-anchor:middle;" transform="matrix(1 0 0 1 1449.84 322)">Regular</text>
  <text style="stroke:none;fill:black;font-family:SF Pro,SF Pro Display,SF Pro Text,sans-serif;font-size:13;text-anchor:middle;" transform="matrix(1 0 0 1 1746.56 322)">Medium</text>
  <text style="stroke:none;fill:black;font-family:SF Pro,SF Pro Display,SF Pro Text,sans-serif;font-size:13;text-anchor:middle;" transform="matrix(1 0 0 1 2043.27 322)">Semibold</text>
  <text style="stroke:none;fill:black;font-family:SF Pro,SF Pro Display,SF Pro Text,sans-serif;font-size:13;text-anchor:middle;" transform="matrix(1 0 0 1 2339.98 322)">Bold</text>
  <text style="stroke:none;fill:black;font-family:SF Pro,SF Pro Display,SF Pro Text,sans-serif;font-size:13;text-anchor:middle;" transform="matrix(1 0 0 1 2636.69 322)">Heavy</text>
  <text style="stroke:none;fill:black;font-family:SF Pro,SF Pro Display,SF Pro Text,sans-serif;font-size:13;text-anchor:middle;" transform="matrix(1 0 0 1 2933.4 322)">Black</text>
  <line style="fill:none;stroke:black;opacity:1;stroke-width:0.5;" x1="263" x2="3036" y1="1903" y2="1903"/>
  <g transform="matrix(1 0 0 1 263 1933)">
   <path d="M9.24805 0.830078Q10.8691 0.830078 12.2949 0.214844Q13.7207-0.400391 14.8096-1.49414Q15.8984-2.58789 16.5186-4.01367Q17.1387-5.43945 17.1387-7.05078Q17.1387-8.66211 16.5186-10.0879Q15.8984-11.5137 14.8047-12.6074Q13.7109-13.7012 12.2852-14.3164Q10.8594-14.9316 9.23828-14.9316Q7.62695-14.9316 6.20117-14.3164Q4.77539-13.7012 3.69141-12.6074Q2.60742-11.5137 1.9873-10.0879Q1.36719-8.66211 1.36719-7.05078Q1.36719-5.43945 1.9873-4.01367Q2.60742-2.58789 3.69629-1.49414Q4.78516-0.400391 6.21094 0.214844Q7.63672 0.830078 9.24805 0.830078ZM9.24805-0.654297Q7.91992-0.654297 6.7627-1.14746Q5.60547-1.64062 4.73145-2.51953Q3.85742-3.39844 3.36426-4.56055Q2.87109-5.72266 2.87109-7.05078Q2.87109-8.37891 3.35938-9.54102Q3.84766-10.7031 4.72168-11.582Q5.5957-12.4609 6.75293-12.9541Q7.91016-13.4473 9.23828-13.4473Q10.5762-13.4473 11.7334-12.9541Q12.8906-12.4609 13.7695-11.582Q14.6484-10.7031 15.1465-9.54102Q15.6445-8.37891 15.6445-7.05078Q15.6445-5.72266 15.1514-4.56055Q14.6582-3.39844 13.7842-2.51953Q12.9102-1.64062 11.748-1.14746Q10.5859-0.654297 9.24805-0.654297ZM5.83984-7.04102Q5.83984-6.71875 6.04492-6.51855Q6.25-6.31836 6.5918-6.31836L8.50586-6.31836L8.50586-4.39453Q8.50586-4.0625 8.70605-3.85742Q8.90625-3.65234 9.22852-3.65234Q9.56055-3.65234 9.76562-3.85742Q9.9707-4.0625 9.9707-4.39453L9.9707-6.31836L11.8945-6.31836Q12.2266-6.31836 12.4316-6.51855Q12.6367-6.71875 12.6367-7.04102Q12.6367-7.37305 12.4316-7.57812Q12.2266-7.7832 11.8945-7.7832L9.9707-7.7832L9.9707-9.69727Q9.9707-10.0391 9.76562-10.2441Q9.56055-10.4492 9.22852-10.4492Q8.90625-10.4492 8.70605-10.2441Q8.50586-10.0391 8.50586-9.69727L8.50586-7.7832L6.5918-7.7832Q6.25-7.7832 6.04492-7.57812Q5.83984-7.37305 5.83984-7.04102Z"/>
  </g>
  <g transform="matrix(1 0 0 1 281.867 1933)">
   <path d="M11.709 2.91016Q13.75 2.91016 15.5518 2.12891Q17.3535 1.34766 18.7305-0.0292969Q20.1074-1.40625 20.8887-3.20801Q21.6699-5.00977 21.6699-7.05078Q21.6699-9.0918 20.8887-10.8936Q20.1074-12.6953 18.7305-14.0723Q17.3535-15.4492 15.5469-16.2305Q13.7402-17.0117 11.6992-17.0117Q9.6582-17.0117 7.85645-16.2305Q6.05469-15.4492 4.68262-14.0723Q3.31055-12.6953 2.5293-10.8936Q1.74805-9.0918 1.74805-7.05078Q1.74805-5.00977 2.5293-3.20801Q3.31055-1.40625 4.6875-0.0292969Q6.06445 1.34766 7.86621 2.12891Q9.66797 2.91016 11.709 2.91016ZM11.709 1.25Q9.98047 1.25 8.47656 0.605469Q6.97266-0.0390625 5.83496-1.17676Q4.69727-2.31445 4.05762-3.81836Q3.41797-5.32227 3.41797-7.05078Q3.41797-8.7793 4.05762-10.2832Q4.69727-11.7871 5.83008-12.9297Q6.96289-14.0723 8.4668-14.7119Q9.9707-15.3516 11.6992-15.3516Q13.4277-15.3516 14.9316-14.7119Q16.4355-14.0723 17.5781-12.9297Q18.7207-11.7871 19.3652-10.2832Q20.0098-8.7793 20.0098-7.05078Q20.0098-5.32227 19.3701-3.81836Q18.7305-2.31445 17.5928-1.17676Q16.4551-0.0390625 14.9463 0.605469Q13.4375 1.25 11.709 1.25ZM7.39258-7.04102Q7.39258-6.68945 7.62695-6.46484Q7.86133-6.24023 8.23242-6.24023L10.8789-6.24023L10.8789-3.57422Q10.8789-3.21289 11.1035-2.9834Q11.3281-2.75391 11.6797-2.75391Q12.0508-2.75391 12.2852-2.9834Q12.5195-3.21289 12.5195-3.57422L12.5195-6.24023L15.1758-6.24023Q15.5371-6.24023 15.7715-6.46484Q16.0059-6.68945 16.0059-7.04102Q16.0059-7.41211 15.7715-7.6416Q15.5371-7.87109 15.1758-7.87109L12.5195-7.87109L12.5195-10.5176Q12.5195-10.8984 12.2852-11.1279Q12.0508-11.3574 11.6797-11.3574Q11.3281-11.3574 11.1035-11.1279Q10.8789-10.8984 10.8789-10.5176L10.8789-7.87109L8.23242-7.87109Q7.85156-7.87109 7.62207-7.6416Q7.39258-7.41211 7.39258-7.04102Z"/>
  </g>
  <g transform="matrix(1 0 0 1 305.646 1933)">
   <path d="M14.9707 5.66406Q17.0605 5.66406 18.96 5.01465Q20.8594 4.36523 22.4512 3.19336Q24.043 2.02148 25.2197 0.429688Q26.3965-1.16211 27.0459-3.06641Q27.6953-4.9707 27.6953-7.05078Q27.6953-9.14062 27.0459-11.04Q26.3965-12.9395 25.2197-14.5312Q24.043-16.123 22.4512-17.2998Q20.8594-18.4766 18.9551-19.126Q17.0508-19.7754 14.9609-19.7754Q12.8711-19.7754 10.9717-19.126Q9.07227-18.4766 7.48535-17.2998Q5.89844-16.123 4.72168-14.5312Q3.54492-12.9395 2.90039-11.04Q2.25586-9.14062 2.25586-7.05078Q2.25586-4.9707 2.90527-3.06641Q3.55469-1.16211 4.72656 0.429688Q5.89844 2.02148 7.49023 3.19336Q9.08203 4.36523 10.9814 5.01465Q12.8809 5.66406 14.9707 5.66406ZM14.9707 3.84766Q13.1641 3.84766 11.5283 3.2959Q9.89258 2.74414 8.53516 1.74805Q7.17773 0.751953 6.17676-0.610352Q5.17578-1.97266 4.62891-3.6084Q4.08203-5.24414 4.08203-7.05078Q4.08203-8.86719 4.62891-10.5029Q5.17578-12.1387 6.17188-13.501Q7.16797-14.8633 8.52539-15.8594Q9.88281-16.8555 11.5186-17.4023Q13.1543-17.9492 14.9609-17.9492Q16.7773-17.9492 18.4131-17.4023Q20.0488-16.8555 21.4111-15.8594Q22.7734-14.8633 23.7695-13.501Q24.7656-12.1387 25.3174-10.5029Q25.8691-8.86719 25.8691-7.05078Q25.8789-5.24414 25.332-3.6084Q24.7852-1.97266 23.7842-0.610352Q22.7832 0.751953 21.4209 1.74805Q20.0586 2.74414 18.4229 3.2959Q16.7871 3.84766 14.9707 3.84766ZM9.45312-7.04102Q9.45312-6.66016 9.71191-6.41113Q9.9707-6.16211 10.3711-6.16211L14.0625-6.16211L14.0625-2.46094Q14.0625-2.06055 14.3115-1.80664Q14.5605-1.55273 14.9414-1.55273Q15.3516-1.55273 15.6055-1.80664Q15.8594-2.06055 15.8594-2.46094L15.8594-6.16211L19.5605-6.16211Q19.9609-6.16211 20.2148-6.41113Q20.4688-6.66016 20.4688-7.04102Q20.4688-7.45117 20.2148-7.70508Q19.9609-7.95898 19.5605-7.95898L15.8594-7.95898L15.8594-11.6504Q15.8594-12.0605 15.6055-12.3145Q15.3516-12.5684 14.9414-12.5684Q14.5605-12.5684 14.3115-12.3096Q14.0625-12.0508 14.0625-11.6504L14.0625-7.95898L10.3711-7.95898Q9.96094-7.95898 9.70703-7.70508Q9.45312-7.45117 9.45312-7.04102Z"/>
  </g>
  <text style="stroke:none;fill:black;font-family:SF Pro,SF Pro Display,SF Pro Text,sans-serif;font-size:13;font-weight:bold;" transform="matrix(1 0 0 1 263 1953)">Design Variations</text>
  <text style="stroke:none;fill:black;font-family:SF Pro,SF Pro Display,SF Pro Text,sans-serif;font-size:13;" transform="matrix(1 0 0 1 263 1971)">Symbols are supported in up to nine weights and three scales.</text>
  <text style="stroke:none;fill:black;font-family:SF Pro,SF Pro Display,SF Pro Text,sans-serif;font-size:13;" transform="matrix(1 0 0 1 263 1989)">For optimal layout with text and other symbols, vertically align</text>
  <text style="stroke:none;fill:black;font-family:SF Pro,SF Pro Display,SF Pro Text,sans-serif;font-size:13;" transform="matrix(1 0 0 1 263 2007)">symbols with the adjacent text.</text>
  <line style="fill:none;stroke:#00AEEF;stroke-width:0.5;opacity:1.0;" x1="776" x2="776" y1="1919" y2="1933"/>
  <g transform="matrix(1 0 0 1 776 1933)">
   <path d="M3.31055 0.15625Q3.70117 0.15625 3.91602-0.00976562Q4.13086-0.175781 4.26758-0.585938L5.52734-4.0332L11.2891-4.0332L12.5488-0.585938Q12.6855-0.175781 12.9004-0.00976562Q13.1152 0.15625 13.4961 0.15625Q13.8867 0.15625 14.1162-0.0585938Q14.3457-0.273438 14.3457-0.644531Q14.3457-0.869141 14.2383-1.17188L9.6582-13.3691Q9.48242-13.8184 9.17969-14.043Q8.87695-14.2676 8.4082-14.2676Q7.5-14.2676 7.17773-13.3789L2.59766-1.16211Q2.49023-0.859375 2.49023-0.634766Q2.49023-0.263672 2.70996-0.0537109Q2.92969 0.15625 3.31055 0.15625ZM6.00586-5.51758L8.37891-12.0898L8.42773-12.0898L10.8008-5.51758Z"/>
  </g>
  <line style="fill:none;stroke:#00AEEF;stroke-width:0.5;opacity:1.0;" x1="793.197" x2="793.197" y1="1919" y2="1933"/>
  <text style="stroke:none;fill:black;font-family:SF Pro,SF Pro Display,SF Pro Text,sans-serif;font-size:13;font-weight:bold;" transform="matrix(1 0 0 1 776 1953)">Margins</text>
  <text style="stroke:none;fill:black;font-family:SF Pro,SF Pro Display,SF Pro Text,sans-serif;font-size:13;" transform="matrix(1 0 0 1 776 1971)">Leading and trailing margins on the left and right side of each symbol</text>
  <text style="stroke:none;fill:black;font-family:SF Pro,SF Pro Display,SF Pro Text,sans-serif;font-size:13;" transform="matrix(1 0 0 1 776 1989)">can be adjusted by modifying the x-location of the margin guidelines.</text>
  <text style="stroke:none;fill:black;font-family:SF Pro,SF Pro Display,SF Pro Text,sans-serif;font-size:13;" transform="matrix(1 0 0 1 776 2007)">Modifications are automatically applied proportionally to all</text>
  <text style="stroke:none;fill:black;font-family:SF Pro,SF Pro Display,SF Pro Text,sans-serif;font-size:13;" transform="matrix(1 0 0 1 776 2025)">scales and weights.</text>
  <g transform="matrix(1 0 0 1 1289 1933)">
   <path d="M2.8418 1.86523L4.54102 3.57422Q5.18555 4.22852 5.90332 4.17969Q6.62109 4.13086 7.31445 3.35938L18.0078-8.42773L17.041-9.4043L6.42578 2.27539Q6.16211 2.57812 5.89355 2.61719Q5.625 2.65625 5.27344 2.30469L4.10156 1.14258Q3.75 0.791016 3.79395 0.522461Q3.83789 0.253906 4.14062-0.0195312L15.6152-10.8203L14.6387-11.7871L3.04688-0.898438Q2.30469-0.214844 2.25098 0.498047Q2.19727 1.21094 2.8418 1.86523ZM9.25781-16.3281Q8.94531-16.0254 8.90625-15.6348Q8.86719-15.2441 9.04297-14.9512Q9.21875-14.6777 9.55566-14.541Q9.89258-14.4043 10.3809-14.5215Q11.4746-14.7754 12.5977-14.7314Q13.7207-14.6875 14.7949-13.9844L14.209-12.5293Q13.9551-11.9043 14.0674-11.4404Q14.1797-10.9766 14.5801-10.5664L16.875-8.25195Q17.2363-7.88086 17.5781-7.82227Q17.9199-7.76367 18.3398-7.8418L19.4043-8.03711L20.0684-7.36328L20.0293-6.80664Q20-6.43555 20.1221-6.12305Q20.2441-5.81055 20.6055-5.44922L21.3672-4.70703Q21.7285-4.3457 22.1533-4.33105Q22.5781-4.31641 22.9297-4.66797L25.8398-7.58789Q26.1914-7.93945 26.1816-8.35449Q26.1719-8.76953 25.8105-9.13086L25.0391-9.89258Q24.6875-10.2539 24.3799-10.3857Q24.0723-10.5176 23.7109-10.4883L23.1348-10.4395L22.4902-11.0742L22.7344-12.1973Q22.832-12.6172 22.6953-12.9834Q22.5586-13.3496 22.1191-13.7891L19.9219-15.9766Q18.6719-17.2168 17.2607-17.8369Q15.8496-18.457 14.4189-18.4814Q12.9883-18.5059 11.665-17.959Q10.3418-17.4121 9.25781-16.3281ZM10.752-15.957Q11.6602-16.6211 12.7002-16.9043Q13.7402-17.1875 14.8047-17.085Q15.8691-16.9824 16.8701-16.5137Q17.8711-16.0449 18.7012-15.2051L21.1328-12.793Q21.3086-12.6172 21.3525-12.4512Q21.3965-12.2852 21.3379-12.0312L21.0156-10.5469L22.5195-9.0625L23.5059-9.12109Q23.6914-9.13086 23.7891-9.09668Q23.8867-9.0625 24.0332-8.91602L24.6094-8.33984L22.168-5.89844L21.5918-6.47461Q21.4453-6.62109 21.4062-6.71875Q21.3672-6.81641 21.377-7.01172L21.4453-7.98828L19.9512-9.47266L18.4277-9.21875Q18.1836-9.16992 18.042-9.2041Q17.9004-9.23828 17.7148-9.41406L15.7129-11.416Q15.5176-11.5918 15.4932-11.7529Q15.4688-11.9141 15.5859-12.1875L16.4648-14.2773Q15.293-15.3711 13.8281-15.791Q12.3633-16.2109 10.8398-15.7617Q10.7227-15.7324 10.6885-15.8057Q10.6543-15.8789 10.752-15.957Z"/>
  </g>
  <text style="stroke:none;fill:black;font-family:SF Pro,SF Pro Display,SF Pro Text,sans-serif;font-size:13;font-weight:bold;" transform="matrix(1 0 0 1 1289 1953)">Exporting</text>
  <text style="stroke:none;fill:black;font-family:SF Pro,SF Pro Display,SF Pro Text,sans-serif;font-size:13;" transform="matrix(1 0 0 1 1289 1971)">Symbols should be outlined when exporting to ensure the</text>
  <text style="stroke:none;fill:black;font-family:SF Pro,SF Pro Display,SF Pro Text,sans-serif;font-size:13;" transform="matrix(1 0 0 1 1289 1989)">design is preserved when submitting to Xcode.</text>
  <text id="template-version" style="stroke:none;fill:black;font-family:SF Pro,SF Pro Display,SF Pro Text,sans-serif;font-size:13;text-anchor:end;" transform="matrix(1 0 0 1 3036 1933)">Template v.2.0</text>
  <text style="stroke:none;fill:black;font-family:SF Pro,SF Pro Display,SF Pro Text,sans-serif;font-size:13;text-anchor:end;" transform="matrix(1 0 0 1 3036 1951)">Requires Xcode 13 or greater</text>
  <text id="descriptive-name" style="stroke:none;fill:black;font-family:SF Pro,SF Pro Display,SF Pro Text,sans-serif;font-size:13;text-anchor:end;" transform="matrix(1 0 0 1 3036 1969)">Generated from whatsapp</text>
  <text style="stroke:none;fill:black;font-family:SF Pro,SF Pro Display,SF Pro Text,sans-serif;font-size:13;text-anchor:end;" transform="matrix(1 0 0 1 3036 1987)">Typeset at 100 points</text>
  <text style="stroke:none;fill:black;font-family:SF Pro,SF Pro Display,SF Pro Text,sans-serif;font-size:13;" transform="matrix(1 0 0 1 263 726)">Small</text>
  <text style="stroke:none;fill:black;font-family:SF Pro,SF Pro Display,SF Pro Text,sans-serif;font-size:13;" transform="matrix(1 0 0 1 263 1156)">Medium</text>
  <text style="stroke:none;fill:black;font-family:SF Pro,SF Pro Display,SF Pro Text,sans-serif;font-size:13;" transform="matrix(1 0 0 1 263 1586)">Large</text>
 </g>
 <g id="Guides">
  <g id="H-reference" style="fill:#27AAE1;stroke:none;" transform="matrix(1 0 0 1 339 696)">
   <path d="M0.976562 0L3.66211 0L29.3457-67.1387L30.0293-67.1387L30.0293-70.459L28.125-70.459ZM11.6699-24.4629L46.9727-24.4629L46.2402-26.709L12.4512-26.709ZM55.127 0L57.7637 0L30.6152-70.459L29.4434-70.459L29.4434-67.1387Z"/>
  </g>
  <line id="Baseline-S" style="fill:none;stroke:#27AAE1;opacity:1;stroke-width:0.5;" x1="263" x2="3036" y1="696" y2="696"/>
  <line id="Capline-S" style="fill:none;stroke:#27AAE1;opacity:1;stroke-width:0.5;" x1="263" x2="3036" y1="625.541" y2="625.541"/>
  <g id="H-reference" style="fill:#27AAE1;stroke:none;" transform="matrix(1 0 0 1 339 1126)">
   <path d="M0.976562 0L3.66211 0L29.3457-67.1387L30.0293-67.1387L30.0293-70.459L28.125-70.459ZM11.6699-24.4629L46.9727-24.4629L46.2402-26.709L12.4512-26.709ZM55.127 0L57.7637 0L30.6152-70.459L29.4434-70.459L29.4434-67.1387Z"/>
  </g>
  <line id="Baseline-M" style="fill:none;stroke:#27AAE1;opacity:1;stroke-width:0.5;" x1="263" x2="3036" y1="1126" y2="1126"/>
  <line id="Capline-M" style="fill:none;stroke:#27AAE1;opacity:1;stroke-width:0.5;" x1="263" x2="3036" y1="1055.54" y2="1055.54"/>
  <g id="H-reference" style="fill:#27AAE1;stroke:none;" transform="matrix(1 0 0 1 339 1556)">
   <path d="M0.976562 0L3.66211 0L29.3457-67.1387L30.0293-67.1387L30.0293-70.459L28.125-70.459ZM11.6699-24.4629L46.9727-24.4629L46.2402-26.709L12.4512-26.709ZM55.127 0L57.7637 0L30.6152-70.459L29.4434-70.459L29.4434-67.1387Z"/>
  </g>
  <line id="Baseline-L" style="fill:none;stroke:#27AAE1;opacity:1;stroke-width:0.5;" x1="263" x2="3036" y1="1556" y2="1556"/>
  <line id="Capline-L" style="fill:none;stroke:#27AAE1;opacity:1;stroke-width:0.5;" x1="263" x2="3036" y1="1485.54" y2="1485.54"/>
  <line id="left-margin" style="fill:none;stroke:#00AEEF;stroke-width:0.5;opacity:1.0;" x1="1390.84" x2="1390.84" y1="1030.78" y2="1150.12"/>
  <line id="right-margin" style="fill:none;stroke:#00AEEF;stroke-width:0.5;opacity:1.0;" x1="1508.84" x2="1508.84" y1="1030.78" y2="1150.12"/>
 </g>
 <g id="Symbols">
  <g id="Black-L" transform="matrix(1 0 0 1 2853.52 1556)">
   <path d="M109.408-13.4791C108.162-10.0112 102.038-6.65922 99.2918-6.42222C96.5212-6.1667 93.9384-5.18609 81.2901-10.1248C66.0326-16.0854 56.4126-31.5879 55.6609-32.589C54.9089-33.5641 49.5555-40.645 49.5555-47.9517C49.5555-55.2825 53.4294-58.8716 54.7866-60.3632C56.1681-61.8547 57.7883-62.2237 58.7978-62.2237C59.7808-62.2237 60.7903-62.2237 61.6643-62.1792C62.7433-62.1549 63.9202-62.0839 65.044-59.6174C66.3804-56.6846 69.292-49.3298 69.6662-48.584C70.0403-47.8382 70.3015-46.9526 69.7828-45.9777C69.2885-44.9764 69.0308-44.3704 68.3055-43.4848C67.5534-42.6233 66.7322-41.5533 66.0499-40.9025C65.2979-40.1568 64.5253-39.3423 65.3937-37.8542C66.2622-36.3662 69.2677-31.4984 73.7225-27.5665C79.448-22.4916 84.2824-20.9312 85.7865-20.1855C87.2902-19.4397 88.1587-19.5552 89.0251-20.5565C89.9179-21.5315 92.7789-24.8858 93.7883-26.3774C94.7711-27.8689 95.7805-27.6134 97.1433-27.1231C98.5249-26.6328 105.897-23.0252 107.401-22.2794C108.905-21.5335 109.888-21.1625 110.268-20.5585C110.655-19.9299 110.655-16.9525 109.408-13.4791ZM79.8769-102.735C117.397-102.735 147.813-72.3197 147.813-34.7993C147.813 2.7212 117.397 33.1369 79.8769 33.1369C67.8513 33.1369 56.5645 29.9996 46.7649 24.5186L12.6019 32.1611L21.2958-0.406643C15.3603-10.4971 11.9407-22.2461 11.9407-34.7993C11.9407-72.3197 42.3567-102.735 79.8769-102.735ZM79.8769 13.2935C106.437 13.2935 127.97-8.23935 127.97-34.7993C127.97-61.3591 106.437-82.8921 79.8769-82.8921C53.3172-82.8921 31.7841-61.3591 31.7841-34.7993C31.7841-23.2112 35.937-12.6158 42.7843-4.34547L40.1455 5.5421L50.5124 3.22417C58.6157 9.53146 68.8039 13.2935 79.8769 13.2935Z"/>
  </g>
  <g id="Heavy-L" transform="matrix(1 0 0 1 2557.76 1556)">
   <path d="M109.062-13.2294C107.794-9.69411 101.564-6.27692 98.77-6.03576C95.9516-5.77537 93.324-4.77568 80.4565-9.81034C64.9348-15.8864 55.1478-31.6898 54.3831-32.7103C53.6181-33.7045 48.1721-40.9228 48.1721-48.3712C48.1721-55.8443 52.1133-59.5027 53.4941-61.0232C54.8997-62.5435 56.5478-62.9201 57.5746-62.9201C58.5749-62.9201 59.6018-62.9201 60.4907-62.8745C61.5885-62.8496 62.7854-62.7775 63.929-60.2629C65.2887-57.2733 68.2506-49.7755 68.6311-49.0152C69.0115-48.255 69.2776-47.3522 68.7496-46.3581C68.2467-45.3375 67.9846-44.7199 67.2465-43.817C66.4814-42.9391 65.6457-41.8481 64.9518-41.1847C64.1869-40.4246 63.4011-39.594 64.2844-38.0774C65.1678-36.561 68.2257-31.5985 72.7577-27.5899C78.5826-22.4168 83.5005-20.8258 85.0305-20.0656C86.5602-19.3054 87.4436-19.4231 88.3253-20.4436C89.2336-21.4378 92.1441-24.8568 93.171-26.3772C94.171-27.8976 95.1978-27.6372 96.5841-27.1374C97.9899-26.6375 105.489-22.9599 107.019-22.1996C108.549-21.4394 109.549-21.0613 109.935-20.4452C110.329-19.8052 110.329-16.77 109.062-13.2294ZM78.9282-101.801C115.924-101.801 145.916-71.8095 145.916-34.8131C145.916 2.18336 115.924 32.1744 78.9282 32.1744C67.0675 32.1744 55.9362 29.0782 46.2721 23.671L12.5888 31.2051L21.1634-0.909831C15.3133-10.8576 11.9407-22.4382 11.9407-34.8131C11.9407-71.8095 41.932-101.801 78.9282-101.801ZM78.9282 14.7453C106.29 14.7453 128.487-7.45132 128.487-34.8131C128.487-62.1747 106.29-84.3714 78.9282-84.3714C51.5666-84.3714 29.3698-62.1747 29.3698-34.8131C29.3698-23.2671 33.3787-12.6861 40.0321-4.30834L36.796 7.81289L49.5045 4.9729C57.7055 11.1099 67.8846 14.7453 78.9282 14.7453Z"/>
  </g>
  <g id="Bold-L" transform="matrix(1 0 0 1 2262.24 1556)">
   <path d="M108.556-12.944C107.263-9.33247 100.912-5.84133 98.0652-5.59546C95.1926-5.32954 92.514-4.30823 79.3977-9.45163C63.5762-15.6586 53.5997-31.8031 52.8201-32.8455C52.0405-33.8614 46.4893-41.2354 46.4893-48.8443C46.4893-56.4787 50.5069-60.2158 51.9143-61.7689C53.3474-63.322 55.0272-63.7071 56.0737-63.7071C57.0936-63.7071 58.1402-63.7071 59.0459-63.6604C60.1652-63.6348 61.3848-63.5613 62.5509-60.9924C63.9371-57.9384 66.9561-50.2784 67.3437-49.5018C67.7313-48.7252 68.0027-47.8029 67.4643-46.7871C66.9517-45.7446 66.6846-45.1138 65.9319-44.1914C65.1521-43.2947 64.2999-42.1799 63.5929-41.5023C62.8133-40.7259 62.0125-39.877 62.9127-38.3282C63.813-36.7796 66.9304-31.7096 71.55-27.6142C77.4878-22.3296 82.5005-20.7041 84.0598-19.9276C85.6191-19.151 86.5194-19.271 87.4185-20.3135C88.3445-21.3294 91.3111-24.8217 92.3577-26.3748C93.3774-27.928 94.4239-27.662 95.8368-27.1513C97.27-26.6407 104.914-22.8836 106.473-22.107C108.033-21.3304 109.053-20.9444 109.446-20.3145C109.848-19.6616 109.848-16.5609 108.556-12.944ZM77.7402-100.628C114.08-100.628 143.54-71.1687 143.54-34.8285C143.54 1.51172 114.08 30.971 77.7402 30.971C66.0846 30.971 55.1473 27.9249 45.652 22.609L12.5706 30.0065L20.9967-1.54227C15.2547-11.3106 11.9407-22.6782 11.9407-34.8285C11.9407-71.1687 41.4002-100.628 77.7402-100.628ZM77.7402 16.5356C106.086 16.5356 129.104-6.48245 129.104-34.8285C129.104-63.1745 106.086-86.1925 77.7402-86.1925C49.3942-86.1925 26.3762-63.1745 26.3762-34.8285C26.3762-23.34 30.2046-12.7845 36.6173-4.28104L32.6376 10.6196L48.2602 7.13098C56.5762 13.0581 66.7363 16.5356 77.7402 16.5356Z"/>
  </g>
  <g id="Semibold-L" transform="matrix(1 0 0 1 1966.35 1556)">
   <path d="M108.207-12.7473C106.898-9.08316 100.463-5.54103 97.5793-5.29191C94.6693-5.02218 91.9556-3.98596 78.6678-9.20434C62.6396-15.5016 52.5324-31.8812 51.7426-32.9388C50.9528-33.9695 45.3291-41.4509 45.3291-49.1705C45.3291-56.9161 49.3995-60.7074 50.8253-62.2831C52.2773-63.8587 53.9788-64.2497 55.039-64.2497C56.0723-64.2497 57.1326-64.2497 58.0499-64.2022C59.1839-64.1761 60.4193-64.1017 61.6009-61.4953C63.0052-58.3969 66.0636-50.6251 66.4561-49.8372C66.8487-49.0494 67.1239-48.1135 66.5782-47.0828C66.0589-46.0253 65.7883-45.3854 65.0256-44.4495C64.2357-43.5399 63.3721-42.4087 62.6561-41.7213C61.8664-40.9336 61.0553-40.0721 61.967-38.5011C62.879-36.9302 66.0374-31.7863 70.7175-27.6309C76.7331-22.2695 81.811-20.6202 83.3907-19.8324C84.9703-19.0445 85.8822-19.1662 86.7933-20.2238C87.7315-21.2546 90.7368-24.7975 91.7971-26.3732C92.8302-27.9489 93.8904-27.6791 95.3216-27.161C96.7738-26.6429 104.518-22.831 106.097-22.0431C107.677-21.2552 108.71-20.8638 109.108-20.2244C109.516-19.5626 109.516-16.4167 108.207-12.7473ZM76.9212-99.8195C112.809-99.8195 141.902-70.7269 141.902-34.8391C141.902 1.04869 112.809 30.1414 76.9212 30.1414C65.4071 30.1414 54.6034 27.1299 45.2244 21.8769L12.558 29.1801L20.8818-1.97828C15.2143-11.6229 11.9407-22.8438 11.9407-34.8391C11.9407-70.7269 41.0335-99.8195 76.9212-99.8195ZM76.9212 17.7698C105.946 17.7698 129.53-5.81452 129.53-34.8391C129.53-63.8637 105.946-87.4479 76.9212-87.4479C47.8966-87.4479 24.3124-63.8637 24.3124-34.8391C24.3124-23.3902 28.0164-12.8523 34.2631-4.26221L29.7709 12.5546L47.4024 8.61875C55.7976 14.4012 65.9446 17.7698 76.9212 17.7698Z"/>
  </g>
  <g id="Medium-L" transform="matrix(1 0 0 1 1670.26 1556)">
   <path d="M107.942-12.5981C106.62-8.89412 100.123-5.31334 97.2109-5.06175C94.2725-4.78914 91.5322-3.74161 78.1144-9.01684C61.9294-15.3825 51.7231-31.9405 50.9256-33.0095C50.1282-34.0515 44.4495-41.6143 44.4495-49.4178C44.4495-57.2478 48.5598-61.0802 49.9995-62.6729C51.4658-64.2657 53.184-64.6611 54.2544-64.6611C55.298-64.6611 56.3685-64.6611 57.2947-64.613C58.4399-64.5865 59.6872-64.5114 60.8805-61.8766C62.2987-58.7445 65.3869-50.888 65.7832-50.0915C66.1794-49.2951 66.4575-48.3491 65.9064-47.3071C65.3819-46.2381 65.1088-45.5912 64.3384-44.6452C63.5408-43.7258 62.6687-42.5822 61.9458-41.8873C61.1484-41.091 60.3294-40.22 61.25-38.6322C62.1708-37.0445 65.3603-31.8444 70.0862-27.6436C76.1608-22.224 81.2883-20.5565 82.8833-19.7602C84.4783-18.9638 85.3991-19.0867 86.3193-20.1558C87.2667-21.1979 90.3014-24.7791 91.3719-26.3719C92.4154-27.9647 93.4858-27.692 94.931-27.1683C96.3975-26.6446 104.217-22.7911 105.812-21.9946C107.407-21.1983 108.451-20.8026 108.852-20.1561C109.264-19.4875 109.264-16.3074 107.942-12.5981ZM76.3002-99.2066C111.845-99.2066 140.66-70.3919 140.66-34.8471C140.66 0.697601 111.845 29.5123 76.3002 29.5123C64.8933 29.5123 54.191 26.527 44.9003 21.3218L12.5485 28.5536L20.7947-2.30887C15.1836-11.8597 11.9407-22.9692 11.9407-34.8471C11.9407-70.3919 40.7555-99.2066 76.3002-99.2066ZM76.3002 18.7056C105.839 18.7056 129.853-5.30807 129.853-34.8471C129.853-64.3863 105.839-88.3998 76.3002-88.3998C46.761-88.3998 22.7475-64.3863 22.7475-34.8471C22.7475-23.4283 26.3572-12.9037 32.4781-4.24794L27.5972 14.0217L46.7519 9.74684C55.2073 15.4195 65.3443 18.7056 76.3002 18.7056Z"/>
  </g>
  <g id="Regular-L" transform="matrix(1 0 0 1 1374.35 1556)">
   <path d="M107.597-12.4036C106.258-8.64755 99.6787-5.01634 96.7303-4.76154C93.755-4.48516 90.9799-3.42289 77.3925-8.77227C61.0031-15.2272 50.6675-32.0177 49.86-33.1017C49.0525-34.1585 43.3021-41.8275 43.3021-49.7404C43.3021-57.6804 47.4645-61.5664 48.9225-63.1814C50.4075-64.7965 52.1472-65.1977 53.2311-65.1977C54.288-65.1977 55.372-65.1977 56.3096-65.1488C57.4695-65.1218 58.7322-65.0459 59.9409-62.3739C61.3771-59.1979 64.5043-51.2309 64.9054-50.4232C65.3065-49.6157 65.5883-48.6564 65.03-47.5996C64.4989-46.5156 64.2224-45.8598 63.4421-44.9005C62.6345-43.9683 61.7511-42.8084 61.0193-42.1039C60.2119-41.2965 59.3826-40.413 60.3147-38.8032C61.2471-37.1935 64.4772-31.9202 69.2628-27.6602C75.4143-22.1646 80.6064-20.4736 82.2215-19.666C83.8366-18.8585 84.7689-18.9831 85.701-20.067C86.6604-21.124 89.7334-24.7552 90.8174-26.3703C91.8743-27.9854 92.9581-27.7089 94.4215-27.1778C95.9067-26.6468 103.825-22.7391 105.44-21.9315C107.055-21.124 108.112-20.7229 108.518-20.067C108.936-19.3896 108.936-16.1648 107.597-12.4036ZM75.4902-98.407C110.588-98.407 139.04-69.955 139.04-34.8576C139.04 0.239662 110.588 28.6918 75.4902 28.6918C64.2232 28.6918 53.6531 25.7407 44.4774 20.5977L12.536 27.7363L20.681-2.74009C15.1437-12.1686 11.9407-23.1329 11.9407-34.8576C11.9407-69.955 40.3929-98.407 75.4902-98.407ZM75.4902 19.9263C105.701 19.9263 130.274-4.64747 130.274-34.8576C130.274-65.068 105.701-89.6414 75.4902-89.6414C45.2798-89.6414 20.7063-65.068 20.7063-34.8576C20.7063-23.478 24.1931-12.9708 30.1498-4.22932L24.7619 15.9354L45.9035 11.2183C54.4373 16.7479 64.5614 19.9263 75.4902 19.9263Z"/>
  </g>
  <g id="Light-L" transform="matrix(1 0 0 1 1078.55 1556)">
   <path d="M106.754-12.361C105.413-8.59786 98.8209-4.95975 95.867-4.70449C92.8859-4.4276 90.1057-3.3633 76.4925-8.72284C60.072-15.19 49.7168-32.0123 48.9078-33.0983C48.0988-34.1571 42.3374-41.8407 42.3374-49.7686C42.3374-57.7237 46.5078-61.617 47.9685-63.2351C49.4563-64.8533 51.1994-65.2552 52.2853-65.2552C53.3442-65.2552 54.4303-65.2552 55.3697-65.2062C56.5317-65.1791 57.7968-65.1031 59.0078-62.426C60.4468-59.244 63.5799-51.2619 63.9817-50.4527C64.3836-49.6437 64.6658-48.6825 64.1066-47.6237C63.5744-46.5377 63.2974-45.8806 62.5156-44.9195C61.7064-43.9856 60.8214-42.8235 60.0883-42.1176C59.2793-41.3087 58.4485-40.4235 59.3824-38.8107C60.3165-37.1979 63.5527-31.9146 68.3474-27.6466C74.5105-22.1405 79.7125-20.4463 81.3306-19.6372C82.9489-18.8282 83.8828-18.953 84.8167-20.039C85.778-21.0979 88.8568-24.736 89.9429-26.3541C91.0017-27.9724 92.0877-27.6954 93.5537-27.1632C95.0417-26.6312 102.975-22.7162 104.593-21.907C106.211-21.0979 107.27-20.6961 107.677-20.039C108.095-19.3603 108.095-16.1294 106.754-12.361ZM74.5866-97.5034C109.185-97.5034 137.232-69.456 137.232-34.8576C137.232-0.259432 109.185 27.7882 74.5866 27.7882C63.4666 27.7882 53.0388 24.8672 43.9861 19.7862L12.5107 26.8152L20.5483-3.23605C15.1014-12.5233 11.9407-23.313 11.9407-34.8576C11.9407-69.456 39.9883-97.5034 74.5866-97.5034ZM74.5866 21.1115C105.42 21.1115 130.556-4.02466 130.556-34.8576C130.556-65.6908 105.42-90.8267 74.5866-90.8267C43.7534-90.8267 18.6175-65.6908 18.6175-34.8576C18.6175-23.5514 21.9658-13.1109 27.7532-4.33075L21.8275 17.8359L45.0697 12.6577C53.6455 18.0493 63.7059 21.1115 74.5866 21.1115Z"/>
  </g>
  <g id="Thin-L" transform="matrix(1 0 0 1 783.031 1556)">
   <path d="M105.639-12.3048C104.295-8.53214 97.6864-4.88491 94.7251-4.62904C91.7365-4.35146 88.9493-3.28449 75.3022-8.65746C58.8405-15.1408 48.4595-32.0051 47.6485-33.0939C46.8374-34.1554 41.0616-41.8582 41.0616-49.8059C41.0616-57.7809 45.2425-61.6839 46.7068-63.3061C48.1983-64.9284 49.9458-65.3312 51.0343-65.3312C52.096-65.3312 53.1848-65.3312 54.1265-65.2821C55.2915-65.255 56.5597-65.1788 57.7738-62.4949C59.2163-59.305 62.3573-51.303 62.76-50.4918C63.1629-49.6807 63.4458-48.7171 62.8853-47.6556C62.3517-46.5669 62.0741-45.9082 61.2902-44.9447C60.479-44.0084 59.5918-42.8433 58.8569-42.1357C58.0459-41.3248 57.213-40.4373 58.1493-38.8205C59.0856-37.2037 62.33-31.9072 67.1367-27.6286C73.3152-22.1087 78.5302-20.4103 80.1523-19.5991C81.7747-18.7881 82.7109-18.9132 83.6472-20.002C84.6109-21.0634 87.6973-24.7107 88.7861-26.3328C89.8476-27.9552 90.9364-27.6774 92.406-27.144C93.8977-26.6106 101.851-22.6858 103.473-21.8746C105.095-21.0634 106.157-20.6607 106.565-20.002C106.984-19.3215 106.984-16.0825 105.639-12.3048ZM73.3915-96.3083C107.33-96.3083 134.842-68.7959 134.842-34.8576C134.842-0.919524 107.33 26.5931 73.3915 26.5931C62.466 26.5931 52.2263 23.712 43.3363 18.7129L12.4771 25.5969L20.3727-3.892C15.0454-12.9924 11.9407-23.5511 11.9407-34.8576C11.9407-68.7959 39.4532-96.3083 73.3915-96.3083ZM73.3915 22.679C105.048 22.679 130.928-3.20093 130.928-34.8576C130.928-66.5144 105.048-92.3942 73.3915-92.3942C41.7346-92.3942 15.8548-66.5144 15.8548-34.8576C15.8548-23.6485 19.0201-13.2963 24.5835-4.4649L17.9464 20.3495L43.9668 14.5615C52.5982 19.7705 62.5746 22.679 73.3915 22.679Z"/>
  </g>
  <g id="Ultralight-L" transform="matrix(1 0 0 1 486.932 1556)">
   <path d="M105.069-12.276C103.722-8.49848 97.1054-4.84657 94.1402-4.59039C91.1478-4.31247 88.3571-3.24412 74.6926-8.62397C58.2098-15.1156 47.8155-32.0015 47.0035-33.0917C46.1913-34.1545 40.4081-41.8671 40.4081-49.825C40.4081-57.8102 44.5944-61.7182 46.0606-63.3425C47.554-64.9668 49.3038-65.3702 50.3936-65.3702C51.4566-65.3702 52.5468-65.3702 53.4898-65.321C54.6562-65.2938 55.926-65.2176 57.1417-62.5302C58.586-59.3363 61.7311-51.324 62.1343-50.5117C62.5377-49.6997 62.8209-48.7348 62.2598-47.672C61.7254-46.5818 61.4475-45.9223 60.6626-44.9576C59.8504-44.0201 58.9621-42.8535 58.2262-42.145C57.4142-41.3331 56.5802-40.4444 57.5177-38.8256C58.4552-37.2067 61.7037-31.9035 66.5165-27.6194C72.703-22.0924 77.9246-20.3918 79.5488-19.5795C81.1734-18.7675 82.1106-18.8928 83.0482-19.983C84.0131-21.0458 87.1035-24.6977 88.1937-26.3219C89.2565-27.9464 90.3467-27.6682 91.8182-27.1341C93.3118-26.6001 101.275-22.6703 102.899-21.858C104.524-21.0458 105.586-20.6426 105.995-19.983C106.415-19.3016 106.415-16.0585 105.069-12.276ZM72.7794-95.6961C106.38-95.6961 133.618-68.4579 133.618-34.8576C133.618-1.25762 106.38 25.981 72.7794 25.981C61.9535 25.981 51.8101 23.1202 43.0035 18.1631L12.4599 24.9729L20.2828-4.22798C15.0168-13.2327 11.9407-23.673 11.9407-34.8576C11.9407-68.4579 39.1791-95.6961 72.7794-95.6961ZM72.7794 23.4819C104.858 23.4819 131.119-2.77903 131.119-34.8576C131.119-66.9363 104.858-93.1971 72.7794-93.1971C40.7006-93.1971 14.4398-66.9363 14.4398-34.8576C14.4398-23.6982 17.5113-13.3912 22.96-4.53361L15.9586 21.6369L43.402 15.5366C52.0617 20.6521 61.9951 23.4819 72.7794 23.4819Z"/>
  </g>
  <g id="Black-M" transform="matrix(1 0 0 1 2870.82 1126)">
   <path d="M84.9472-18.5876C83.9997-15.9577 79.345-13.4159 77.257-13.2358C75.1508-13.042 73.1877-12.2984 63.5733-16.0435C51.9756-20.5638 44.6634-32.3199 44.092-33.0792C43.5203-33.8185 39.4509-39.1883 39.4509-44.7294C39.4509-50.2886 42.3955-53.0106 43.4271-54.1418C44.4771-55.273 45.7087-55.5525 46.4762-55.5525C47.2233-55.5525 47.9907-55.5525 48.6553-55.5188C49.4753-55.5006 50.3701-55.4466 51.2241-53.5762C52.2398-51.3521 54.4532-45.7749 54.7377-45.2093C55.0223-44.6436 55.2206-43.9721 54.8265-43.233C54.4508-42.4735 54.2548-42.0139 53.7037-41.3423C53.132-40.6889 52.508-39.8776 51.9892-39.3841C51.4175-38.8185 50.8301-38.2011 51.4903-37.0722C52.1506-35.9434 54.4349-32.2522 57.821-29.2707C62.1729-25.4222 65.848-24.239 66.9914-23.6734C68.1345-23.1079 68.7948-23.1956 69.4531-23.955C70.1316-24.6942 72.3064-27.2382 73.0738-28.3694C73.8207-29.5006 74.5881-29.3067 75.6241-28.935C76.674-28.5631 82.2779-25.8274 83.421-25.2619C84.5645-24.6962 85.3113-24.4146 85.6005-23.957C85.8943-23.4796 85.8943-21.2217 84.9472-18.5876ZM62.5769-88.2104C92.0281-88.2104 115.903-64.3359 115.903-34.8845C115.903-5.433 92.0281 18.4415 62.5769 18.4415C53.1383 18.4415 44.2795 15.9797 36.5877 11.6782L9.77107 17.6775L16.5945-7.88562C11.935-15.8067 9.251-25.0302 9.251-34.8845C9.251-64.3359 33.1257-88.2104 62.5769-88.2104ZM62.5769 1.27607C82.5491 1.27607 98.7375-14.9121 98.7375-34.8845C98.7375-54.8567 82.5491-71.045 62.5769-71.045C42.6048-71.045 26.4164-54.8567 26.4164-34.8845C26.4164-25.8805 29.7387-17.6683 35.1874-11.3481L33.5834-5.33623L39.8872-6.74583C46.0871-1.73163 53.9795 1.27607 62.5769 1.27607Z"/>
  </g>
  <g id="Heavy-M" transform="matrix(1 0 0 1 2574.96 1126)">
   <path d="M84.6859-18.3473C83.7177-15.6523 78.9601-13.0474 76.8266-12.8633C74.6742-12.6647 72.6677-11.9027 62.8414-15.7407C50.9883-20.3727 43.5147-32.4201 42.9307-33.1981C42.3465-33.9559 38.1876-39.4586 38.1876-45.1368C38.1876-50.8338 41.1972-53.6229 42.2515-54.782C43.3248-55.9411 44.5835-56.2279 45.3677-56.2279C46.1315-56.2279 46.9157-56.2279 47.5947-56.1933C48.4329-56.1744 49.3471-56.1193 50.2202-54.2024C51.2585-51.9233 53.5204-46.2077 53.8111-45.6281C54.1017-45.0485 54.3047-44.3603 53.9017-43.6026C53.5177-42.8245 53.3174-42.3536 52.7539-41.6654C52.1697-40.996 51.5317-40.1644 51.0016-39.6587C50.4174-39.0792 49.8173-38.4461 50.4919-37.2898C51.1666-36.1334 53.5015-32.3505 56.9623-29.2949C61.4104-25.3512 65.1661-24.1385 66.3345-23.559C67.5028-22.9794 68.1775-23.0692 68.8506-23.8473C69.5442-24.605 71.7668-27.2116 72.551-28.3708C73.3145-29.5299 74.0987-29.3313 75.1574-28.9503C76.2308-28.5692 81.9579-25.7657 83.1261-25.1861C84.2946-24.6065 85.0581-24.3182 85.3533-23.8488C85.654-23.3604 85.654-21.0466 84.6859-18.3473ZM61.7329-87.3798C90.7179-87.3798 114.215-63.8831 114.215-34.8979C114.215-5.91273 90.7179 17.5839 61.7329 17.5839C52.4419 17.5839 43.7221 15.1595 36.1513 10.9245L9.76059 16.828L16.4774-8.33177C11.8929-16.1263 9.251-25.2013 9.251-34.8979C9.251-63.8831 32.7479-87.3798 61.7329-87.3798ZM61.7329 2.58597C82.4314 2.58597 99.2168-14.1992 99.2168-34.8979C99.2168-55.5966 82.4314-72.3818 61.7329-72.3818C41.0343-72.3818 24.249-55.5966 24.249-34.8979C24.249-25.9283 27.4434-17.7242 32.718-11.3025L30.5798-3.29171L38.9789-5.16911C45.2703-0.308678 53.1597 2.58597 61.7329 2.58597Z"/>
  </g>
  <g id="Bold-M" transform="matrix(1 0 0 1 2279.19 1126)">
   <path d="M84.3937-18.0786C83.4022-15.3107 78.5295-12.6352 76.345-12.4466C74.141-12.2427 72.0859-11.46 62.0227-15.4019C49.8839-20.159 42.2297-32.5322 41.6316-33.3311C41.0334-34.1096 36.7743-39.7611 36.7743-45.5926C36.7743-51.4436 39.8567-54.3078 40.9365-55.4982C42.0359-56.6885 43.3247-56.9835 44.1278-56.9835C44.9101-56.9835 45.7132-56.9835 46.4082-56.9477C47.2668-56.9282 48.2028-56.8718 49.0973-54.903C50.1607-52.5624 52.477-46.6919 52.7745-46.0967C53.072-45.5015 53.2801-44.7946 52.8671-44.0162C52.4738-43.2172 52.2688-42.7337 51.6915-42.0268C51.0932-41.3395 50.4395-40.4852 49.897-39.9659C49.2988-39.3707 48.6843-38.7203 49.375-37.5331C50.0658-36.346 52.4574-32.4606 56.0018-29.3219C60.5573-25.2718 64.4033-24.026 65.5998-23.4309C66.7961-22.8357 67.4869-22.9278 68.1766-23.7268C68.887-24.5052 71.1631-27.1819 71.9662-28.3723C72.7484-29.5626 73.5513-29.3588 74.6354-28.9674C75.7349-28.5761 81.5999-25.6966 82.7962-25.1014C83.9927-24.5062 84.7749-24.2103 85.0768-23.7278C85.3851-23.227 85.3851-20.8507 84.3937-18.0786ZM60.7886-86.4506C89.2522-86.4506 112.326-63.3766 112.326-34.913C112.326-6.44938 89.2522 16.6246 60.7886 16.6246C51.6629 16.6246 43.0985 14.242 35.6631 10.0814L9.74887 15.8776L16.3463-8.83085C11.8458-16.4839 9.251-25.3927 9.251-34.913C9.251-63.3766 32.3252-86.4506 60.7886-86.4506ZM60.7886 4.05128C82.2999 4.05128 99.7529-13.4017 99.7529-34.913C99.7529-56.4243 82.2999-73.8772 60.7886-73.8772C39.2774-73.8772 21.8244-56.4243 21.8244-34.913C21.8244-25.9819 24.8756-17.7867 29.9557-11.2514L27.2199-1.00461L37.9629-3.40533C44.3566 1.2831 52.2427 4.05128 60.7886 4.05128Z"/>
  </g>
  <g id="Semibold-M" transform="matrix(1 0 0 1 1983.13 1126)">
   <path d="M84.1922-17.8933C83.1847-15.0752 78.2327-12.351 76.0131-12.1593C73.7734-11.9518 71.6849-11.1548 61.4583-15.1683C49.1225-20.0117 41.3438-32.6094 40.736-33.4228C40.1282-34.2155 35.8-39.9695 35.8-45.9068C35.8-51.864 38.9326-54.78 40.0299-55.9919C41.1474-57.2038 42.457-57.5043 43.2729-57.5043C44.0681-57.5043 44.8841-57.5043 45.5902-57.4679C46.463-57.4478 47.4138-57.3906 48.3231-55.386C49.4039-53.0029 51.7577-47.0256 52.0599-46.4197C52.362-45.8137 52.5738-45.094 52.1539-44.3013C51.7542-43.4879 51.5459-42.9957 50.959-42.2759C50.3511-41.5763 49.6865-40.7063 49.1354-40.1776C48.5276-39.5718 47.9033-38.9093 48.605-37.7009C49.3069-36.4926 51.7376-32.5364 55.3395-29.3406C59.9692-25.217 63.8774-23.9485 65.0932-23.3426C66.3089-22.7367 67.0108-22.8303 67.7119-23.6437C68.4339-24.4365 70.747-27.1614 71.563-28.3733C72.3581-29.5852 73.174-29.3777 74.2756-28.9792C75.3931-28.5808 81.3531-25.649 82.5687-25.043C83.7845-24.4371 84.5797-24.136 84.8861-23.6443C85.1998-23.1351 85.1998-20.7156 84.1922-17.8933ZM60.1377-85.8101C88.2417-85.8101 111.024-63.0274 111.024-34.9234C111.024-6.81934 88.2417 15.9633 60.1377 15.9633C51.1259 15.9633 42.6686 13.6095 35.3265 9.50011L9.74079 15.2224L16.256-9.17491C11.8133-16.7305 9.251-25.5247 9.251-34.9234C9.251-63.0274 32.0338-85.8101 60.1377-85.8101ZM60.1377 5.06145C82.2091 5.06145 100.123-12.8519 100.123-34.9234C100.123-56.9948 82.2091-74.9081 60.1377-74.9081C38.0662-74.9081 20.1529-56.9948 20.1529-34.9234C20.1529-26.0188 23.1055-17.8297 28.0514-11.2162L24.9035 0.5721L37.2624-2.18939C43.7267 2.38046 51.6105 5.06145 60.1377 5.06145Z"/>
  </g>
  <g id="Medium-M" transform="matrix(1 0 0 1 1686.91 1126)">
   <path d="M84.0395-17.7529C83.0197-14.8967 78.0077-12.1355 75.7613-11.9414C73.4947-11.7312 71.3808-10.9235 61.0303-14.9912C48.5452-19.8999 40.6721-32.668 40.0569-33.4923C39.4418-34.2958 35.0613-40.1276 35.0613-46.145C35.0613-52.1828 38.2319-55.138 39.3425-56.3663C40.4736-57.5945 41.799-57.8993 42.6248-57.8993C43.4297-57.8993 44.2556-57.8993 44.97-57.8623C45.8534-57.8418 46.8156-57.7839 47.7361-55.7522C48.8301-53.337 51.2123-47.2787 51.518-46.6646C51.8238-46.0505 52.0382-45.321 51.6131-44.5175C51.2085-43.6931 50.9978-43.1944 50.4036-42.4648C49.7884-41.7559 49.1156-40.874 48.5579-40.3382C47.9428-39.7242 47.311-39.0526 48.0212-37.8281C48.7315-36.6037 51.1919-32.5939 54.8374-29.3547C59.5233-25.1755 63.4787-23.8897 64.7091-23.2757C65.9395-22.6615 66.6498-22.7564 67.3596-23.5807C68.0904-24.3843 70.4314-27.1459 71.2572-28.3741C72.0621-29.6024 72.8878-29.3921 74.0027-28.9882C75.1339-28.5844 81.1659-25.6129 82.3963-24.9988C83.6267-24.3847 84.4317-24.0796 84.7416-23.5811C85.0592-23.0654 85.0592-20.6132 84.0395-17.7529ZM59.6441-85.3244C87.4755-85.3244 110.037-62.7626 110.037-34.9312C110.037-7.09986 87.4755 15.4619 59.6441 15.4619C50.7186 15.4619 42.3426 13.1299 35.0713 9.05938L9.73467 14.7256L16.1875-9.43579C11.7887-16.9174 9.251-25.6248 9.251-34.9312C9.251-62.7626 31.8128-85.3244 59.6441-85.3244ZM59.6441 5.82741C82.1404 5.82741 100.403-12.4351 100.403-34.9312C100.403-57.4275 82.1404-75.6898 59.6441-75.6898C37.1479-75.6898 18.8855-57.4275 18.8855-34.9312C18.8855-26.0468 21.7633-17.8624 26.6074-11.1895L23.1472 1.76763L36.7313-1.26742C43.2491 3.21252 51.1311 5.82741 59.6441 5.82741Z"/>
  </g>
  <g id="Regular-M" transform="matrix(1 0 0 1 1390.84 1126)">
   <path d="M83.8402-17.5696C82.8046-14.6638 77.7141-11.8545 75.433-11.6573C73.1311-11.4435 70.9842-10.6217 60.4721-14.7603C47.7923-19.7542 39.796-32.7444 39.1712-33.583C38.5465-34.4006 34.0977-40.3338 34.0977-46.4557C34.0977-52.5986 37.3179-55.605 38.4459-56.8545C39.5948-58.1041 40.9407-58.4144 41.7793-58.4144C42.597-58.4144 43.4356-58.4144 44.1611-58.3767C45.0584-58.3558 46.0354-58.297 46.9705-56.2298C48.0816-53.7727 50.5009-47.6089 50.8113-46.984C51.1217-46.3593 51.3397-45.6171 50.9077-44.7995C50.4968-43.9609 50.2829-43.4535 49.6792-42.7112C49.0544-41.9901 48.3709-41.0928 47.8048-40.5476C47.1801-39.923 46.5386-39.2395 47.2596-37.994C47.981-36.7487 50.48-32.6689 54.1825-29.3731C58.9417-25.1214 62.9586-23.8131 64.2081-23.1884C65.4576-22.5636 66.179-22.66 66.9001-23.4986C67.6423-24.3163 70.0198-27.1256 70.8585-28.3752C71.6761-29.6247 72.5146-29.4109 73.6468-28.9999C74.7958-28.5891 80.9218-25.5658 82.1713-24.941C83.4209-24.3163 84.2386-24.006 84.5531-23.4986C84.8759-22.9745 84.8759-20.4796 83.8402-17.5696ZM59.0003-84.6908C86.4762-84.6908 108.75-62.4173 108.75-34.9415C108.75-7.46575 86.4762 14.8078 59.0003 14.8078C50.1875 14.8078 41.9174 12.5043 34.7385 8.4845L9.72667 14.0776L16.0981-9.77607C11.7566-17.1612 9.251-25.7553 9.251-34.9415C9.251-62.4173 31.5246-84.6908 59.0003-84.6908ZM59.0003 6.82648C82.0506 6.82648 100.768-11.8913 100.768-34.9415C100.768-57.9918 82.0506-76.7094 59.0003-76.7094C35.95-76.7094 17.2324-57.9918 17.2324-34.9415C17.2324-26.0834 20.0126-17.905 24.724-11.1547L20.8563 3.32701L36.0385-0.0648392C42.6261 4.29782 50.5059 6.82648 59.0003 6.82648Z"/>
  </g>
  <g id="Light-M" transform="matrix(1 0 0 1 1094.94 1126)">
   <path d="M83.0846-17.5315C82.0467-14.6192 76.9451-11.8037 74.659-11.6062C72.352-11.3919 70.2003-10.5682 59.6652-14.7159C46.9575-19.7208 38.9437-32.7395 38.3175-33.58C37.6914-34.3994 33.2328-40.3457 33.2328-46.481C33.2328-52.6374 36.4602-55.6504 37.5906-56.9027C38.742-58.155 40.091-58.466 40.9314-58.466C41.7508-58.466 42.5913-58.466 43.3184-58.4281C44.2176-58.4072 45.1967-58.3483 46.1339-56.2766C47.2475-53.814 49.6722-47.6367 49.9831-47.0105C50.2942-46.3844 50.5126-45.6405 50.0798-44.8211C49.668-43.9806 49.4536-43.4722 48.8486-42.7283C48.2224-42.0056 47.5374-41.1062 46.97-40.5599C46.344-39.9339 45.701-39.2489 46.4238-38.0007C47.1466-36.7526 49.6511-32.6639 53.3617-29.3609C58.1314-25.0998 62.1571-23.7887 63.4094-23.1625C64.6617-22.5364 65.3845-22.633 66.1073-23.4735C66.8512-24.2929 69.2338-27.1084 70.0744-28.3607C70.8938-29.6131 71.7342-29.3987 72.8688-28.9868C74.0203-28.5751 80.1598-25.5453 81.4121-24.9191C82.6644-24.2929 83.4839-23.982 83.799-23.4735C84.1226-22.9482 84.1226-20.4478 83.0846-17.5315ZM58.1902-83.8807C85.2186-83.8807 107.129-61.9699 107.129-34.9415C107.129-7.91321 85.2186 13.9977 58.1902 13.9977C49.5092 13.9977 41.3666 11.7212 34.298 7.75694L9.70391 13.2517L15.9791-10.2207C11.7186-17.4792 9.251-25.9167 9.251-34.9415C9.251-61.9699 31.1619-83.8807 58.1902-83.8807ZM58.1902 7.8891C81.7989 7.8891 101.021-11.333 101.021-34.9415C101.021-58.5502 81.7989-77.772 58.1902-77.772C34.5815-77.772 15.3596-58.5502 15.3596-34.9415C15.3596-26.1492 18.0157-18.0306 22.5754-11.2456L18.2254 5.0309L35.2909 1.22569C41.9162 5.4646 49.7389 7.8891 58.1902 7.8891Z"/>
  </g>
  <g id="Thin-M" transform="matrix(1 0 0 1 799.304 1126)">
   <path d="M82.0852-17.4811C81.0444-14.5603 75.9279-11.7366 73.6352-11.5385C71.3215-11.3236 69.1636-10.4976 58.598-14.6573C45.8534-19.6767 37.8164-32.7331 37.1885-33.576C36.5605-34.3978 32.0889-40.3613 32.0889-46.5144C32.0889-52.6887 35.3258-55.7104 36.4595-56.9663C37.6142-58.2223 38.9671-58.5342 39.8098-58.5342C40.6317-58.5342 41.4747-58.5342 42.2038-58.4962C43.1057-58.4752 44.0875-58.4162 45.0275-56.3383C46.1443-53.8687 48.5761-47.6735 48.8879-47.0455C49.1998-46.4176 49.4188-45.6715 48.9849-44.8497C48.5717-44.0068 48.3568-43.4969 47.75-42.7509C47.1219-42.026 46.4351-41.1241 45.8661-40.5762C45.2382-39.9484 44.5933-39.2613 45.3182-38.0096C46.0432-36.7579 48.5549-32.6573 52.2763-29.3448C57.0597-25.0713 61.0971-23.7564 62.353-23.1283C63.6091-22.5004 64.3338-22.5973 65.0587-23.4402C65.8048-24.262 68.1944-27.0857 69.0373-28.3416C69.8591-29.5976 70.702-29.3826 71.8398-28.9696C72.9947-28.5567 79.1519-25.5181 80.4079-24.89C81.6639-24.262 82.4856-23.9502 82.8017-23.4402C83.1262-22.9134 83.1262-20.4058 82.0852-17.4811ZM57.1187-82.8092C83.5554-82.8092 104.986-61.3781 104.986-34.9415C104.986-8.50502 83.5554 12.9262 57.1187 12.9262C48.6121 12.9262 40.6382 10.6854 33.7155 6.79467L9.67379 12.1594L15.8217-10.8088C11.6685-17.8998 9.251-26.1302 9.251-34.9415C9.251-61.3781 30.6821-82.8092 57.1187-82.8092ZM57.1187 9.29448C81.4659 9.29448 101.355-10.5944 101.355-34.9415C101.355-59.2887 81.4659-79.1774 57.1187-79.1774C32.7715-79.1774 12.8828-59.2887 12.8828-34.9415C12.8828-26.2362 15.3747-18.1968 19.7335-11.3659L14.7458 7.28442L34.3022 2.93252C40.9772 7.00775 48.7246 9.29448 57.1187 9.29448Z"/>
  </g>
  <g id="Ultralight-M" transform="matrix(1 0 0 1 503.141 1126)">
   <path d="M81.5733-17.4552C80.531-14.5301 75.4069-11.7022 73.1109-11.5039C70.7937-11.2887 68.6327-10.4614 58.0514-14.6273C45.2879-19.6541 37.239-32.7298 36.6102-33.574C35.9813-34.397 31.5031-40.3693 31.5031-46.5316C31.5031-52.715 34.7447-55.7412 35.8801-56.999C37.0365-58.2567 38.3914-58.5691 39.2354-58.5691C40.0585-58.5691 40.9027-58.5691 41.6329-58.531C42.5362-58.51 43.5194-58.4509 44.4608-56.37C45.5792-53.8967 48.0146-47.6923 48.3269-47.0634C48.6392-46.4346 48.8586-45.6874 48.424-44.8644C48.0103-44.0202 47.7951-43.5095 47.1873-42.7625C46.5583-42.0365 45.8704-41.1332 45.3006-40.5846C44.6718-39.9558 44.026-39.2677 44.752-38.0141C45.4779-36.7605 47.9934-32.6539 51.7203-29.3365C56.5108-25.0567 60.5542-23.7398 61.8119-23.1108C63.0699-22.482 63.7957-22.579 64.5217-23.4232C65.2689-24.2462 67.6619-27.0741 68.5061-28.3318C69.3291-29.5897 70.1733-29.3744 71.3128-28.9608C72.4694-28.5472 78.6357-25.5042 79.8935-24.8752C81.1515-24.2462 81.9744-23.934 82.2909-23.4232C82.6159-22.8956 82.6159-20.3843 81.5733-17.4552ZM56.5699-82.2604C82.7035-82.2604 103.889-61.075 103.889-34.9415C103.889-8.80814 82.7035 12.3774 56.5699 12.3774C48.1527 12.3774 40.265 10.1549 33.4171 6.30181L9.65837 11.6L15.741-11.11C11.6428-18.1152 9.251-26.2395 9.251-34.9415C9.251-61.075 30.4364-82.2604 56.5699-82.2604ZM56.5699 10.0143C81.2953 10.0143 101.526-10.2162 101.526-34.9415C101.526-59.6669 81.2953-79.8973 56.5699-79.8973C31.8445-79.8973 11.6141-59.6669 11.6141-34.9415C11.6141-26.2808 14.022-18.2819 18.278-11.4275L12.9636 8.43867L33.7958 3.80675C40.4963 7.79814 48.2051 10.0143 56.5699 10.0143Z"/>
  </g>
  <g id="Black-S" transform="matrix(1 0 0 1 2884.15 696)">
   <path d="M66.6082-22.2579C65.8718-20.2162 62.2544-18.243 60.6316-18.103C58.9946-17.9525 57.469-17.3752 49.9971-20.2827C40.9836-23.7921 35.301-32.9188 34.8569-33.5082C34.4126-34.0822 31.25-38.2509 31.25-42.5527C31.25-46.8685 33.5383-48.9818 34.3401-49.86C35.156-50.7382 36.1133-50.9551 36.7097-50.9551C37.2903-50.9551 37.8867-50.9551 38.4033-50.929C39.0405-50.9149 39.7361-50.8729 40.3997-49.4209C41.189-47.6942 42.9092-43.3645 43.1304-42.9254C43.3516-42.4863 43.5056-41.965 43.1995-41.3912C42.9075-40.8016 42.7551-40.4447 42.3269-39.9233C41.8826-39.416 41.3977-38.7863 40.9944-38.4031C40.55-37.964 40.0935-37.4847 40.6067-36.6082C41.1199-35.7318 42.895-32.8662 45.5266-30.5517C48.9087-27.5638 51.7649-26.6454 52.6536-26.2063C53.542-25.7672 54.0552-25.8353 54.5667-26.4249C55.094-26.9987 56.7842-28.9739 57.3806-29.8521C57.9609-30.7303 58.5574-30.5798 59.3625-30.2912C60.1785-30.0025 64.5337-27.8787 65.4221-27.4396C66.3108-27.0004 66.8911-26.7818 67.116-26.4266C67.3442-26.0558 67.3442-24.3029 66.6082-22.2579ZM49.25-76.9551C72.446-76.9551 91.25-58.1514 91.25-34.9551C91.25-11.7589 72.446 7.04486 49.25 7.04486C41.8159 7.04486 34.8386 5.10583 28.7803 1.7179L7.65942 6.44287L13.0337-13.691C9.36401-19.9296 7.25-27.194 7.25-34.9551C7.25-58.1514 26.054-76.9551 49.25-76.9551ZM49.25-6.95514C64.7146-6.95514 77.25-19.4903 77.25-34.9551C77.25-50.4198 64.7146-62.9551 49.25-62.9551C33.7854-62.9551 21.25-50.4198 21.25-34.9551C21.25-27.8921 23.8853-21.4573 28.1992-16.5329L27.0759-12.3224L31.4912-13.3094C36.3245-9.34045 42.5073-6.95514 49.25-6.95514Z"/>
  </g>
  <g id="Heavy-S" transform="matrix(1 0 0 1 2588.06 696)">
   <path d="M66.4813-22.0573C65.7275-19.9607 62.0235-17.9343 60.3624-17.791C58.6866-17.6365 57.1244-17.0436 49.4742-20.0294C40.246-23.6329 34.4275-33.0051 33.9728-33.6103C33.518-34.1998 30.28-38.4806 30.28-42.8979C30.28-47.3298 32.6231-49.4997 33.444-50.4014C34.2795-51.3031 35.2595-51.5262 35.8701-51.5262C36.4646-51.5262 37.0752-51.5262 37.6039-51.4993C38.2565-51.4846 38.9683-51.4417 39.648-49.9505C40.4563-48.1775 42.2174-43.7311 42.4437-43.2803C42.67-42.8294 42.828-42.294 42.5143-41.7046C42.2153-41.0993 42.0594-40.7329 41.6207-40.1975C41.1659-39.6767 40.6692-39.0298 40.2565-38.6364C39.8016-38.1855 39.3343-37.6931 39.8596-36.7934C40.3849-35.8938 42.2027-32.951 44.8971-30.5739C48.36-27.5059 51.2841-26.5625 52.1939-26.1117C53.1034-25.6608 53.6287-25.7307 54.1527-26.336C54.6927-26.9254 56.4231-28.9533 57.0337-29.8551C57.6281-30.7568 58.2386-30.6023 59.0629-30.306C59.8985-30.0095 64.3574-27.8285 65.2669-27.3777C66.1766-26.9267 66.7711-26.7024 67.0009-26.3373C67.235-25.9572 67.235-24.1572 66.4813-22.0573ZM48.6316-76.3483C71.4861-76.3483 90.0133-57.8213 90.0133-34.9666C90.0133-12.112 71.4861 6.41498 48.6316 6.41498C41.307 6.41498 34.4322 4.50445 28.4633 1.16625L7.65337 5.82179L12.9487-14.0157C9.33284-20.1624 7.25-27.3197 7.25-34.9666C7.25-57.8213 25.7771-76.3483 48.6316-76.3483ZM48.6316-5.97063C64.6462-5.97063 77.6277-18.9519 77.6277-34.9666C77.6277-50.9812 64.6462-63.9627 48.6316-63.9627C32.6171-63.9627 19.6356-50.9812 19.6356-34.9666C19.6356-27.9246 22.1773-21.489 26.3619-16.4822L24.8433-10.7915L30.8099-12.1259C35.7166-8.27257 41.9042-5.97063 48.6316-5.97063Z"/>
  </g>
  <g id="Bold-S" transform="matrix(1 0 0 1 2292.04 696)">
   <path d="M66.3394-21.8329C65.566-19.675 61.7653-17.5891 60.0612-17.4419C58.342-17.283 56.739-16.6728 48.8895-19.746C39.4209-23.4549 33.4505-33.1016 32.9839-33.7245C32.5173-34.3314 29.1951-38.7375 29.1951-43.2841C29.1951-47.8458 31.5994-50.0789 32.4417-51.007C33.2993-51.935 34.3046-52.1649 34.931-52.1649C35.5412-52.1649 36.1676-52.1649 36.7098-52.1371C37.3795-52.1219 38.1096-52.0779 38.8073-50.5429C39.6368-48.718 41.4436-44.1412 41.6757-43.6771C41.9077-43.2131 42.0701-42.662 41.7479-42.0551C41.4412-41.4322 41.2813-41.0552 40.8309-40.5041C40.3643-39.9682 39.8544-39.3022 39.4312-38.8973C38.9645-38.4333 38.4852-37.9262 39.024-37.0006C39.5629-36.075 41.4283-33.0457 44.193-30.5988C47.7464-27.4411 50.7464-26.4699 51.6797-26.0059C52.6129-25.5418 53.1517-25.6136 53.6896-26.2366C54.2438-26.8435 56.0192-28.9304 56.6456-29.8585C57.2557-30.7865 57.8821-30.6276 58.7277-30.3225C59.5853-30.0174 64.1602-27.7724 65.0933-27.3084C66.0266-26.8443 66.6368-26.6136 66.8723-26.2374C67.1127-25.8469 67.1127-23.9942 66.3394-21.8329ZM47.94-75.6695C70.4125-75.6695 88.63-57.4521 88.63-34.9795C88.63-12.5069 70.4125 5.71048 47.94 5.71048C40.7378 5.71048 33.9777 3.83182 28.1088 0.549255L7.64661 5.12714L12.8536-14.3789C9.29797-20.4227 7.25-27.4603 7.25-34.9795C7.25-57.4521 25.4675-75.6695 47.94-75.6695ZM47.94-4.86951C64.5696-4.86951 78.05-18.3498 78.05-34.9795C78.05-51.6092 64.5696-65.0895 47.94-65.0895C31.3104-65.0895 17.83-51.6092 17.83-34.9795C17.83-27.961 20.267-21.5245 24.3069-16.4256L22.3462-9.07935L30.0479-10.8021C35.0368-7.07819 41.2297-4.86951 47.94-4.86951Z"/>
  </g>
  <g id="Semibold-S" transform="matrix(1 0 0 1 1995.8 696)">
   <path d="M66.2416-21.6783C65.4547-19.478 61.5872-17.351 59.8536-17.2013C58.1044-17.0393 56.4733-16.4171 48.4863-19.5506C38.8521-23.3322 32.7769-33.1681 32.3022-33.8032C31.8275-34.4221 28.4472-38.9146 28.4472-43.5503C28.4472-48.2015 30.8937-50.4782 31.7507-51.4244C32.6234-52.3706 33.6462-52.6053 34.2835-52.6053C34.9045-52.6053 35.5418-52.6053 36.0933-52.5768C36.7749-52.5612 37.5176-52.5164 38.2277-50.9514C39.0718-49.0907 40.9101-44.4239 41.1461-43.9507C41.3822-43.4776 41.5475-42.9157 41.2196-42.2968C40.9074-41.6617 40.7448-41.2774 40.2864-40.7154C39.8116-40.1692 39.2926-39.49 38.8621-39.0772C38.3874-38.6041 37.8998-38.0869 38.4479-37.1434C38.9961-36.2 40.8945-33.1111 43.7076-30.6159C47.3233-27.3964 50.3757-26.406 51.3252-25.9329C52.2746-25.4598 52.8229-25.5329 53.3704-26.168C53.9343-26.787 55.7408-28.9146 56.3781-29.8608C56.999-30.807 57.6363-30.645 58.4966-30.3339C59.3694-30.0228 64.0242-27.7337 64.9736-27.2606C65.9232-26.7875 66.5442-26.5524 66.7835-26.1686C67.0285-25.7709 67.0285-23.8818 66.2416-21.6783ZM47.4632-75.2016C69.6723-75.2016 87.6763-57.1976 87.6763-34.9884C87.6763-12.7792 69.6723 5.22477 47.4632 5.22477C40.3454 5.22477 33.6644 3.36808 27.8644 0.12387L7.64194 4.64821L12.7881-14.6294C9.27394-20.6022 7.25-27.5573 7.25-34.9884C7.25-57.1976 25.2541-75.2016 47.4632-75.2016ZM47.4632-4.11034C64.5169-4.11034 78.3413-17.9347 78.3413-34.9884C78.3413-52.0421 64.5169-65.8664 47.4632-65.8664C30.4095-65.8664 16.5851-52.0421 16.5851-34.9884C16.5851-27.9861 18.95-21.549 22.8901-16.3865L20.6246-7.89888L29.5226-9.88942C34.5681-6.25472 40.7646-4.11034 47.4632-4.11034Z"/>
  </g>
  <g id="Medium-S" transform="matrix(1 0 0 1 1699.45 696)">
   <path d="M66.1674-21.561C65.3702-19.3286 61.4522-17.1705 59.6962-17.0188C57.9243-16.8545 56.2718-16.2232 48.1806-19.4025C38.4207-23.2391 32.2662-33.2186 31.7852-33.8628C31.3044-34.4909 27.88-39.0489 27.88-43.7521C27.88-48.4712 30.3585-50.781 31.2268-51.741C32.1109-52.7009 33.147-52.9392 33.7926-52.9392C34.4218-52.9392 35.0674-52.9392 35.6259-52.9102C36.3165-52.8943 37.0687-52.849 37.7882-51.261C38.6434-49.3733 40.5056-44.6382 40.7446-44.1582C40.9837-43.6782 41.1513-43.1081 40.8189-42.4801C40.5027-41.8358 40.338-41.4459 39.8735-40.8757C39.3925-40.3216 38.8666-39.6324 38.4307-39.2136C37.9498-38.7336 37.4559-38.2087 38.0111-37.2517C38.5664-36.2947 40.4897-33.1606 43.3395-30.6289C47.0025-27.3625 50.0946-26.3576 51.0564-25.8776C52.0182-25.3976 52.5735-25.4717 53.1283-26.116C53.6996-26.7441 55.5297-28.9026 56.1752-29.8626C56.8044-30.8225 57.4499-30.6582 58.3214-30.3425C59.2057-30.0269 63.9211-27.7044 64.8829-27.2244C65.8447-26.7444 66.474-26.5059 66.7163-26.1163C66.9646-25.7133 66.9646-23.7966 66.1674-21.561ZM47.1016-74.8467C69.1111-74.8467 86.9532-57.0046 86.9532-34.9951C86.9532-12.9856 69.1111 4.85648 47.1016 4.85648C40.0478 4.85648 33.4267 3.01645 27.6791-0.198674L7.6384 4.28507L12.7384-14.8192C9.25571-20.7383 7.25-27.6308 7.25-34.9951C7.25-57.0046 25.0922-74.8467 47.1016-74.8467ZM47.1016-3.5347C64.4769-3.5347 78.5621-17.6199 78.5621-34.9951C78.5621-52.3704 64.4769-66.4555 47.1016-66.4555C29.7263-66.4555 15.6412-52.3704 15.6412-34.9951C15.6412-28.0052 17.9514-21.5675 21.8158-16.3569L19.3192-7.0038L29.1242-9.19739C34.2127-5.63033 40.412-3.5347 47.1016-3.5347Z"/>
  </g>
  <g id="Regular-S" transform="matrix(1 0 0 1 1403.21 696)">
   <path d="M66.0707-21.408C65.2601-19.1338 61.2761-16.9351 59.4908-16.7808C57.6893-16.6135 56.009-15.9703 47.7819-19.2093C37.8582-23.1177 31.6-33.2844 31.111-33.9407C30.6221-34.5806 27.1403-39.2241 27.1403-44.0154C27.1403-48.823 29.6605-51.176 30.5433-52.1539C31.4425-53.1318 32.4958-53.3747 33.1522-53.3747C33.7921-53.3747 34.4485-53.3747 35.0162-53.3452C35.7185-53.3288 36.4832-53.2828 37.215-51.665C38.0846-49.7419 39.978-44.9178 40.2209-44.4288C40.4639-43.9399 40.6345-43.359 40.2964-42.7191C39.9749-42.0628 39.8074-41.6657 39.335-41.0848C38.8459-40.5204 38.311-39.8181 37.8679-39.3915C37.379-38.9026 36.877-38.3677 37.4413-37.3929C38.0059-36.4183 39.9617-33.2253 42.8594-30.6459C46.5841-27.3183 49.7279-26.2944 50.7058-25.8055C51.6837-25.3165 52.2483-25.3919 52.8126-26.0482C53.3936-26.6882 55.2543-28.8869 55.9106-29.8649C56.5505-30.8428 57.2068-30.6754 58.0929-30.3538C58.9922-30.0322 63.7866-27.6661 64.7645-27.1771C65.7424-26.6882 66.3824-26.4454 66.6285-26.0482C66.8812-25.6381 66.8812-23.6855 66.0707-21.408ZM46.63-74.3839C68.379-74.3839 86.01-56.7529 86.01-35.0039C86.01-13.2549 68.379 4.3761 46.63 4.3761C39.6597 4.3761 33.1168 2.5578 27.4374-0.619385L7.63379 3.8114L12.6736-15.0669C9.23193-20.9158 7.25-27.7267 7.25-35.0039C7.25-56.7529 24.8811-74.3839 46.63-74.3839ZM46.63-2.78387C64.4247-2.78387 78.8501-17.2094 78.8501-35.0039C78.8501-52.7986 64.4247-67.2239 46.63-67.2239C28.8353-67.2239 14.41-52.7986 14.41-35.0039C14.41-28.03 16.6488-21.5917 20.4146-16.3182L17.6165-5.8363L28.6046-8.29474C33.7491-4.81592 39.952-2.78387 46.63-2.78387Z"/>
  </g>
  <g id="Light-S" transform="matrix(1 0 0 1 1107.22 696)">
   <path d="M65.4022-21.3743C64.5897-19.0944 60.5958-16.8902 58.8061-16.7356C57.0001-16.5678 55.3156-15.923 47.0681-19.1701C37.1197-23.0882 30.846-33.2801 30.3558-33.938C29.8657-34.5795 26.3752-39.2346 26.3752-44.0377C26.3752-48.8573 28.9018-51.2161 29.7867-52.1965C30.6881-53.1768 31.7441-53.4203 32.4021-53.4203C33.0436-53.4203 33.7016-53.4203 34.2708-53.3907C34.9748-53.3743 35.7413-53.3282 36.4749-51.7063C37.3467-49.7785 39.2449-44.9425 39.4884-44.4522C39.7319-43.9621 39.9029-43.3797 39.564-42.7383C39.2416-42.0803 39.0738-41.6822 38.6002-41.0999C38.1099-40.5341 37.5737-39.83 37.1295-39.4024C36.6394-38.9123 36.1361-38.376 36.7018-37.3989C37.2678-36.4218 39.2285-33.2209 42.1333-30.6351C45.8673-27.2992 49.0189-26.2728 49.9992-25.7826C50.9796-25.2924 51.5455-25.368 52.1113-26.026C52.6937-26.6676 54.559-28.8717 55.217-29.8521C55.8585-30.8325 56.5164-30.6647 57.4047-30.3422C58.3062-30.0199 63.1125-27.6479 64.0929-27.1577C65.0732-26.6676 65.7148-26.4241 65.9615-26.026C66.2148-25.6148 66.2148-23.6574 65.4022-21.3743ZM45.9134-73.6672C67.2666-73.6672 84.5767-56.3571 84.5767-35.0039C84.5767-13.6508 67.2666 3.65944 45.9134 3.65944C39.0597 3.65944 32.6296 1.86503 27.0477-1.263L7.61365 3.08083L12.5683-15.4602C9.19838-21.1971 7.25-27.8695 7.25-35.0039C7.25-56.3571 24.5602-73.6672 45.9134-73.6672ZM45.9134-1.84387C64.202-1.84387 79.0734-16.7154 79.0734-35.0039C79.0734-53.2925 64.202-68.1639 45.9134-68.1639C27.6247-68.1639 12.7534-53.2925 12.7534-35.0039C12.7534-28.0882 14.8824-21.7028 18.5138-16.3987L15.2891-4.32902L27.9433-7.15312C33.1211-3.78377 39.2736-1.84387 45.9134-1.84387Z"/>
  </g>
  <g id="Thin-S" transform="matrix(1 0 0 1 811.457 696)">
   <path d="M64.5181-21.3297C63.703-19.0423 59.696-16.8309 57.9005-16.6757C56.0885-16.5074 54.3986-15.8605 46.124-19.1182C36.143-23.0492 29.8488-33.2744 29.357-33.9345C28.8653-34.5781 25.3633-39.2485 25.3633-44.0673C25.3633-48.9027 27.8982-51.2692 28.7861-52.2528C29.6904-53.2363 30.7499-53.4806 31.41-53.4806C32.0536-53.4806 32.7138-53.4806 33.2848-53.4509C33.9911-53.4344 34.7601-53.3882 35.4962-51.7609C36.3708-49.8268 38.2753-44.975 38.5195-44.4832C38.7638-43.9914 38.9353-43.4072 38.5954-42.7636C38.2719-42.1034 38.1036-41.7041 37.6283-41.1199C37.1365-40.5522 36.5985-39.8458 36.1529-39.4168C35.6612-38.9251 35.1562-38.387 35.7239-37.4067C36.2916-36.4264 38.2587-33.215 41.1731-30.6208C44.9193-27.274 48.0812-26.2442 49.0648-25.7524C50.0484-25.2606 50.6161-25.3365 51.1838-25.9966C51.7681-26.6402 53.6394-28.8516 54.2996-29.8351C54.9432-30.8188 55.6033-30.6504 56.4944-30.327C57.3989-30.0036 62.2209-27.6239 63.2045-27.132C64.1882-26.6402 64.8317-26.396 65.0793-25.9966C65.3334-25.5841 65.3334-23.6202 64.5181-21.3297ZM44.9655-72.7194C65.7952-72.7194 82.681-55.8336 82.681-35.0039C82.681-14.1743 65.7952 2.71161 44.9655 2.71161C38.2661 2.71161 31.9852 0.948788 26.5324-2.11423L7.58701 2.11459L12.429-15.9805C9.15401-21.5692 7.25-28.0583 7.25-35.0039C7.25-55.8336 24.1358-72.7194 44.9655-72.7194ZM44.9655-0.600643C63.9074-0.600643 79.3687-16.0621 79.3687-35.0039C79.3687-53.9458 63.9074-69.4071 44.9655-69.4071C26.0236-69.4071 10.5623-53.9458 10.5623-35.0039C10.5623-28.1652 12.5461-21.8498 15.9999-16.5051L12.211-2.33552L27.0687-5.64323C32.2905-2.41868 38.3763-0.600643 44.9655-0.600643Z"/>
  </g>
  <g id="Ultralight-S" transform="matrix(1 0 0 1 515.231 696)">
   <path d="M64.0653-21.3068C63.2488-19.0156 59.2352-16.8005 57.4366-16.6451C55.6216-16.4765 53.9288-15.8285 45.6405-19.0917C35.6428-23.0292 29.338-33.2715 28.8455-33.9327C28.3528-34.5774 24.845-39.2556 24.845-44.0825C24.845-48.926 27.3842-51.2964 28.2736-52.2816C29.1794-53.2668 30.2407-53.5115 30.9018-53.5115C31.5466-53.5115 32.2078-53.5115 32.7798-53.4817C33.4873-53.4652 34.2575-53.4189 34.9949-51.7889C35.871-49.8516 37.7786-44.9917 38.0232-44.499C38.2679-44.0065 38.4397-43.4212 38.0993-42.7766C37.7752-42.1153 37.6066-41.7153 37.1306-41.1301C36.6379-40.5615 36.0991-39.8539 35.6527-39.4241C35.1602-38.9316 34.6543-38.3926 35.223-37.4107C35.7916-36.4288 37.762-33.212 40.6813-30.6135C44.4337-27.261 47.601-26.2296 48.5861-25.7369C49.5715-25.2443 50.14-25.3203 50.7087-25.9816C51.2939-26.6262 53.1685-28.8413 53.8297-29.8265C54.4744-30.8118 55.1356-30.6431 56.0282-30.3192C56.9341-29.9952 61.7643-27.6116 62.7495-27.1189C63.7349-26.6262 64.3795-26.3817 64.6274-25.9816C64.882-25.5683 64.882-23.6011 64.0653-21.3068ZM44.48-72.2339C65.0416-72.2339 81.71-55.5655 81.71-35.0039C81.71-14.4424 65.0416 2.22614 44.48 2.22614C37.8596 2.22614 31.6551 0.479492 26.2684-2.55023L7.57336 1.61969L12.3577-16.2469C9.13129-21.7598 7.25-28.155 7.25-35.0039C7.25-55.5655 23.9185-72.2339 44.48-72.2339ZM44.48 0.0361328C63.7565 0.0361328 79.52-15.7275 79.52-35.0039C79.52-54.2804 63.7565-70.0439 44.48-70.0439C25.2035-70.0439 9.44-54.2804 9.44-35.0039C9.44-28.2047 11.3495-21.9251 14.7123-16.5596L10.6345-1.31445L26.6207-4.86987C31.8651-1.71948 37.9167 0.0361328 44.48 0.0361328Z"/>
  </g>
 </g>
</svg>
