<?xml version="1.0" encoding="UTF-8"?>
<!--Generator: Apple Native CoreSVG 149-->
<!DOCTYPE svg
PUBLIC "-//W3C//DTD SVG 1.1//EN"
       "http://www.w3.org/Graphics/SVG/1.1/DTD/svg11.dtd">
<svg version="1.1" xmlns="http://www.w3.org/2000/svg" xmlns:xlink="http://www.w3.org/1999/xlink" width="3300" height="2200">
 <!--glyph: "", point size: 100.0, font version: "17.0d8e1", template writer version: "58"-->
 <g id="Notes">
  <rect height="2200" id="artboard" style="fill:white;opacity:1" width="3300" x="0" y="0"/>
  <line style="fill:none;stroke:black;opacity:1;stroke-width:0.5;" x1="263" x2="3036" y1="292" y2="292"/>
  <text style="stroke:none;fill:black;font-family:SF Pro,SF Pro Display,SF Pro Text,sans-serif;font-size:13;font-weight:bold;" transform="matrix(1 0 0 1 263 322)">Weight/Scale Variations</text>
  <text style="stroke:none;fill:black;font-family:SF Pro,SF Pro Display,SF Pro Text,sans-serif;font-size:13;text-anchor:middle;" transform="matrix(1 0 0 1 559.711 322)">Ultralight</text>
  <text style="stroke:none;fill:black;font-family:SF Pro,SF Pro Display,SF Pro Text,sans-serif;font-size:13;text-anchor:middle;" transform="matrix(1 0 0 1 856.422 322)">Thin</text>
  <text style="stroke:none;fill:black;font-family:SF Pro,SF Pro Display,SF Pro Text,sans-serif;font-size:13;text-anchor:middle;" transform="matrix(1 0 0 1 1153.13 322)">Light</text>
  <text style="stroke:none;fill:black;font-family:SF Pro,SF Pro Display,SF Pro Text,sans-serif;font-size:13;text-anchor:middle;" transform="matrix(1 0 0 1 1449.84 322)">Regular</text>
  <text style="stroke:none;fill:black;font-family:SF Pro,SF Pro Display,SF Pro Text,sans-serif;font-size:13;text-anchor:middle;" transform="matrix(1 0 0 1 1746.56 322)">Medium</text>
  <text style="stroke:none;fill:black;font-family:SF Pro,SF Pro Display,SF Pro Text,sans-serif;font-size:13;text-anchor:middle;" transform="matrix(1 0 0 1 2043.27 322)">Semibold</text>
  <text style="stroke:none;fill:black;font-family:SF Pro,SF Pro Display,SF Pro Text,sans-serif;font-size:13;text-anchor:middle;" transform="matrix(1 0 0 1 2339.98 322)">Bold</text>
  <text style="stroke:none;fill:black;font-family:SF Pro,SF Pro Display,SF Pro Text,sans-serif;font-size:13;text-anchor:middle;" transform="matrix(1 0 0 1 2636.69 322)">Heavy</text>
  <text style="stroke:none;fill:black;font-family:SF Pro,SF Pro Display,SF Pro Text,sans-serif;font-size:13;text-anchor:middle;" transform="matrix(1 0 0 1 2933.4 322)">Black</text>
  <line style="fill:none;stroke:black;opacity:1;stroke-width:0.5;" x1="263" x2="3036" y1="1903" y2="1903"/>
  <g transform="matrix(1 0 0 1 263 1933)">
   <path d="M9.24805 0.830078Q10.8691 0.830078 12.2949 0.214844Q13.7207-0.400391 14.8096-1.49414Q15.8984-2.58789 16.5186-4.01367Q17.1387-5.43945 17.1387-7.05078Q17.1387-8.66211 16.5186-10.0879Q15.8984-11.5137 14.8047-12.6074Q13.7109-13.7012 12.2852-14.3164Q10.8594-14.9316 9.23828-14.9316Q7.62695-14.9316 6.20117-14.3164Q4.77539-13.7012 3.69141-12.6074Q2.60742-11.5137 1.9873-10.0879Q1.36719-8.66211 1.36719-7.05078Q1.36719-5.43945 1.9873-4.01367Q2.60742-2.58789 3.69629-1.49414Q4.78516-0.400391 6.21094 0.214844Q7.63672 0.830078 9.24805 0.830078ZM9.24805-0.654297Q7.91992-0.654297 6.7627-1.14746Q5.60547-1.64062 4.73145-2.51953Q3.85742-3.39844 3.36426-4.56055Q2.87109-5.72266 2.87109-7.05078Q2.87109-8.37891 3.35938-9.54102Q3.84766-10.7031 4.72168-11.582Q5.5957-12.4609 6.75293-12.9541Q7.91016-13.4473 9.23828-13.4473Q10.5762-13.4473 11.7334-12.9541Q12.8906-12.4609 13.7695-11.582Q14.6484-10.7031 15.1465-9.54102Q15.6445-8.37891 15.6445-7.05078Q15.6445-5.72266 15.1514-4.56055Q14.6582-3.39844 13.7842-2.51953Q12.9102-1.64062 11.748-1.14746Q10.5859-0.654297 9.24805-0.654297ZM5.83984-7.04102Q5.83984-6.71875 6.04492-6.51855Q6.25-6.31836 6.5918-6.31836L8.50586-6.31836L8.50586-4.39453Q8.50586-4.0625 8.70605-3.85742Q8.90625-3.65234 9.22852-3.65234Q9.56055-3.65234 9.76562-3.85742Q9.9707-4.0625 9.9707-4.39453L9.9707-6.31836L11.8945-6.31836Q12.2266-6.31836 12.4316-6.51855Q12.6367-6.71875 12.6367-7.04102Q12.6367-7.37305 12.4316-7.57812Q12.2266-7.7832 11.8945-7.7832L9.9707-7.7832L9.9707-9.69727Q9.9707-10.0391 9.76562-10.2441Q9.56055-10.4492 9.22852-10.4492Q8.90625-10.4492 8.70605-10.2441Q8.50586-10.0391 8.50586-9.69727L8.50586-7.7832L6.5918-7.7832Q6.25-7.7832 6.04492-7.57812Q5.83984-7.37305 5.83984-7.04102Z"/>
  </g>
  <g transform="matrix(1 0 0 1 281.867 1933)">
   <path d="M11.709 2.91016Q13.75 2.91016 15.5518 2.12891Q17.3535 1.34766 18.7305-0.0292969Q20.1074-1.40625 20.8887-3.20801Q21.6699-5.00977 21.6699-7.05078Q21.6699-9.0918 20.8887-10.8936Q20.1074-12.6953 18.7305-14.0723Q17.3535-15.4492 15.5469-16.2305Q13.7402-17.0117 11.6992-17.0117Q9.6582-17.0117 7.85645-16.2305Q6.05469-15.4492 4.68262-14.0723Q3.31055-12.6953 2.5293-10.8936Q1.74805-9.0918 1.74805-7.05078Q1.74805-5.00977 2.5293-3.20801Q3.31055-1.40625 4.6875-0.0292969Q6.06445 1.34766 7.86621 2.12891Q9.66797 2.91016 11.709 2.91016ZM11.709 1.25Q9.98047 1.25 8.47656 0.605469Q6.97266-0.0390625 5.83496-1.17676Q4.69727-2.31445 4.05762-3.81836Q3.41797-5.32227 3.41797-7.05078Q3.41797-8.7793 4.05762-10.2832Q4.69727-11.7871 5.83008-12.9297Q6.96289-14.0723 8.4668-14.7119Q9.9707-15.3516 11.6992-15.3516Q13.4277-15.3516 14.9316-14.7119Q16.4355-14.0723 17.5781-12.9297Q18.7207-11.7871 19.3652-10.2832Q20.0098-8.7793 20.0098-7.05078Q20.0098-5.32227 19.3701-3.81836Q18.7305-2.31445 17.5928-1.17676Q16.4551-0.0390625 14.9463 0.605469Q13.4375 1.25 11.709 1.25ZM7.39258-7.04102Q7.39258-6.68945 7.62695-6.46484Q7.86133-6.24023 8.23242-6.24023L10.8789-6.24023L10.8789-3.57422Q10.8789-3.21289 11.1035-2.9834Q11.3281-2.75391 11.6797-2.75391Q12.0508-2.75391 12.2852-2.9834Q12.5195-3.21289 12.5195-3.57422L12.5195-6.24023L15.1758-6.24023Q15.5371-6.24023 15.7715-6.46484Q16.0059-6.68945 16.0059-7.04102Q16.0059-7.41211 15.7715-7.6416Q15.5371-7.87109 15.1758-7.87109L12.5195-7.87109L12.5195-10.5176Q12.5195-10.8984 12.2852-11.1279Q12.0508-11.3574 11.6797-11.3574Q11.3281-11.3574 11.1035-11.1279Q10.8789-10.8984 10.8789-10.5176L10.8789-7.87109L8.23242-7.87109Q7.85156-7.87109 7.62207-7.6416Q7.39258-7.41211 7.39258-7.04102Z"/>
  </g>
  <g transform="matrix(1 0 0 1 305.646 1933)">
   <path d="M14.9707 5.66406Q17.0605 5.66406 18.96 5.01465Q20.8594 4.36523 22.4512 3.19336Q24.043 2.02148 25.2197 0.429688Q26.3965-1.16211 27.0459-3.06641Q27.6953-4.9707 27.6953-7.05078Q27.6953-9.14062 27.0459-11.04Q26.3965-12.9395 25.2197-14.5312Q24.043-16.123 22.4512-17.2998Q20.8594-18.4766 18.9551-19.126Q17.0508-19.7754 14.9609-19.7754Q12.8711-19.7754 10.9717-19.126Q9.07227-18.4766 7.48535-17.2998Q5.89844-16.123 4.72168-14.5312Q3.54492-12.9395 2.90039-11.04Q2.25586-9.14062 2.25586-7.05078Q2.25586-4.9707 2.90527-3.06641Q3.55469-1.16211 4.72656 0.429688Q5.89844 2.02148 7.49023 3.19336Q9.08203 4.36523 10.9814 5.01465Q12.8809 5.66406 14.9707 5.66406ZM14.9707 3.84766Q13.1641 3.84766 11.5283 3.2959Q9.89258 2.74414 8.53516 1.74805Q7.17773 0.751953 6.17676-0.610352Q5.17578-1.97266 4.62891-3.6084Q4.08203-5.24414 4.08203-7.05078Q4.08203-8.86719 4.62891-10.5029Q5.17578-12.1387 6.17188-13.501Q7.16797-14.8633 8.52539-15.8594Q9.88281-16.8555 11.5186-17.4023Q13.1543-17.9492 14.9609-17.9492Q16.7773-17.9492 18.4131-17.4023Q20.0488-16.8555 21.4111-15.8594Q22.7734-14.8633 23.7695-13.501Q24.7656-12.1387 25.3174-10.5029Q25.8691-8.86719 25.8691-7.05078Q25.8789-5.24414 25.332-3.6084Q24.7852-1.97266 23.7842-0.610352Q22.7832 0.751953 21.4209 1.74805Q20.0586 2.74414 18.4229 3.2959Q16.7871 3.84766 14.9707 3.84766ZM9.45312-7.04102Q9.45312-6.66016 9.71191-6.41113Q9.9707-6.16211 10.3711-6.16211L14.0625-6.16211L14.0625-2.46094Q14.0625-2.06055 14.3115-1.80664Q14.5605-1.55273 14.9414-1.55273Q15.3516-1.55273 15.6055-1.80664Q15.8594-2.06055 15.8594-2.46094L15.8594-6.16211L19.5605-6.16211Q19.9609-6.16211 20.2148-6.41113Q20.4688-6.66016 20.4688-7.04102Q20.4688-7.45117 20.2148-7.70508Q19.9609-7.95898 19.5605-7.95898L15.8594-7.95898L15.8594-11.6504Q15.8594-12.0605 15.6055-12.3145Q15.3516-12.5684 14.9414-12.5684Q14.5605-12.5684 14.3115-12.3096Q14.0625-12.0508 14.0625-11.6504L14.0625-7.95898L10.3711-7.95898Q9.96094-7.95898 9.70703-7.70508Q9.45312-7.45117 9.45312-7.04102Z"/>
  </g>
  <text style="stroke:none;fill:black;font-family:SF Pro,SF Pro Display,SF Pro Text,sans-serif;font-size:13;font-weight:bold;" transform="matrix(1 0 0 1 263 1953)">Design Variations</text>
  <text style="stroke:none;fill:black;font-family:SF Pro,SF Pro Display,SF Pro Text,sans-serif;font-size:13;" transform="matrix(1 0 0 1 263 1971)">Symbols are supported in up to nine weights and three scales.</text>
  <text style="stroke:none;fill:black;font-family:SF Pro,SF Pro Display,SF Pro Text,sans-serif;font-size:13;" transform="matrix(1 0 0 1 263 1989)">For optimal layout with text and other symbols, vertically align</text>
  <text style="stroke:none;fill:black;font-family:SF Pro,SF Pro Display,SF Pro Text,sans-serif;font-size:13;" transform="matrix(1 0 0 1 263 2007)">symbols with the adjacent text.</text>
  <line style="fill:none;stroke:#00AEEF;stroke-width:0.5;opacity:1.0;" x1="776" x2="776" y1="1919" y2="1933"/>
  <g transform="matrix(1 0 0 1 776 1933)">
   <path d="M3.31055 0.15625Q3.70117 0.15625 3.91602-0.00976562Q4.13086-0.175781 4.26758-0.585938L5.52734-4.0332L11.2891-4.0332L12.5488-0.585938Q12.6855-0.175781 12.9004-0.00976562Q13.1152 0.15625 13.4961 0.15625Q13.8867 0.15625 14.1162-0.0585938Q14.3457-0.273438 14.3457-0.644531Q14.3457-0.869141 14.2383-1.17188L9.6582-13.3691Q9.48242-13.8184 9.17969-14.043Q8.87695-14.2676 8.4082-14.2676Q7.5-14.2676 7.17773-13.3789L2.59766-1.16211Q2.49023-0.859375 2.49023-0.634766Q2.49023-0.263672 2.70996-0.0537109Q2.92969 0.15625 3.31055 0.15625ZM6.00586-5.51758L8.37891-12.0898L8.42773-12.0898L10.8008-5.51758Z"/>
  </g>
  <line style="fill:none;stroke:#00AEEF;stroke-width:0.5;opacity:1.0;" x1="793.197" x2="793.197" y1="1919" y2="1933"/>
  <text style="stroke:none;fill:black;font-family:SF Pro,SF Pro Display,SF Pro Text,sans-serif;font-size:13;font-weight:bold;" transform="matrix(1 0 0 1 776 1953)">Margins</text>
  <text style="stroke:none;fill:black;font-family:SF Pro,SF Pro Display,SF Pro Text,sans-serif;font-size:13;" transform="matrix(1 0 0 1 776 1971)">Leading and trailing margins on the left and right side of each symbol</text>
  <text style="stroke:none;fill:black;font-family:SF Pro,SF Pro Display,SF Pro Text,sans-serif;font-size:13;" transform="matrix(1 0 0 1 776 1989)">can be adjusted by modifying the x-location of the margin guidelines.</text>
  <text style="stroke:none;fill:black;font-family:SF Pro,SF Pro Display,SF Pro Text,sans-serif;font-size:13;" transform="matrix(1 0 0 1 776 2007)">Modifications are automatically applied proportionally to all</text>
  <text style="stroke:none;fill:black;font-family:SF Pro,SF Pro Display,SF Pro Text,sans-serif;font-size:13;" transform="matrix(1 0 0 1 776 2025)">scales and weights.</text>
  <g transform="matrix(1 0 0 1 1289 1933)">
   <path d="M2.8418 1.86523L4.54102 3.57422Q5.18555 4.22852 5.90332 4.17969Q6.62109 4.13086 7.31445 3.35938L18.0078-8.42773L17.041-9.4043L6.42578 2.27539Q6.16211 2.57812 5.89355 2.61719Q5.625 2.65625 5.27344 2.30469L4.10156 1.14258Q3.75 0.791016 3.79395 0.522461Q3.83789 0.253906 4.14062-0.0195312L15.6152-10.8203L14.6387-11.7871L3.04688-0.898438Q2.30469-0.214844 2.25098 0.498047Q2.19727 1.21094 2.8418 1.86523ZM9.25781-16.3281Q8.94531-16.0254 8.90625-15.6348Q8.86719-15.2441 9.04297-14.9512Q9.21875-14.6777 9.55566-14.541Q9.89258-14.4043 10.3809-14.5215Q11.4746-14.7754 12.5977-14.7314Q13.7207-14.6875 14.7949-13.9844L14.209-12.5293Q13.9551-11.9043 14.0674-11.4404Q14.1797-10.9766 14.5801-10.5664L16.875-8.25195Q17.2363-7.88086 17.5781-7.82227Q17.9199-7.76367 18.3398-7.8418L19.4043-8.03711L20.0684-7.36328L20.0293-6.80664Q20-6.43555 20.1221-6.12305Q20.2441-5.81055 20.6055-5.44922L21.3672-4.70703Q21.7285-4.3457 22.1533-4.33105Q22.5781-4.31641 22.9297-4.66797L25.8398-7.58789Q26.1914-7.93945 26.1816-8.35449Q26.1719-8.76953 25.8105-9.13086L25.0391-9.89258Q24.6875-10.2539 24.3799-10.3857Q24.0723-10.5176 23.7109-10.4883L23.1348-10.4395L22.4902-11.0742L22.7344-12.1973Q22.832-12.6172 22.6953-12.9834Q22.5586-13.3496 22.1191-13.7891L19.9219-15.9766Q18.6719-17.2168 17.2607-17.8369Q15.8496-18.457 14.4189-18.4814Q12.9883-18.5059 11.665-17.959Q10.3418-17.4121 9.25781-16.3281ZM10.752-15.957Q11.6602-16.6211 12.7002-16.9043Q13.7402-17.1875 14.8047-17.085Q15.8691-16.9824 16.8701-16.5137Q17.8711-16.0449 18.7012-15.2051L21.1328-12.793Q21.3086-12.6172 21.3525-12.4512Q21.3965-12.2852 21.3379-12.0312L21.0156-10.5469L22.5195-9.0625L23.5059-9.12109Q23.6914-9.13086 23.7891-9.09668Q23.8867-9.0625 24.0332-8.91602L24.6094-8.33984L22.168-5.89844L21.5918-6.47461Q21.4453-6.62109 21.4062-6.71875Q21.3672-6.81641 21.377-7.01172L21.4453-7.98828L19.9512-9.47266L18.4277-9.21875Q18.1836-9.16992 18.042-9.2041Q17.9004-9.23828 17.7148-9.41406L15.7129-11.416Q15.5176-11.5918 15.4932-11.7529Q15.4688-11.9141 15.5859-12.1875L16.4648-14.2773Q15.293-15.3711 13.8281-15.791Q12.3633-16.2109 10.8398-15.7617Q10.7227-15.7324 10.6885-15.8057Q10.6543-15.8789 10.752-15.957Z"/>
  </g>
  <text style="stroke:none;fill:black;font-family:SF Pro,SF Pro Display,SF Pro Text,sans-serif;font-size:13;font-weight:bold;" transform="matrix(1 0 0 1 1289 1953)">Exporting</text>
  <text style="stroke:none;fill:black;font-family:SF Pro,SF Pro Display,SF Pro Text,sans-serif;font-size:13;" transform="matrix(1 0 0 1 1289 1971)">Symbols should be outlined when exporting to ensure the</text>
  <text style="stroke:none;fill:black;font-family:SF Pro,SF Pro Display,SF Pro Text,sans-serif;font-size:13;" transform="matrix(1 0 0 1 1289 1989)">design is preserved when submitting to Xcode.</text>
  <text id="template-version" style="stroke:none;fill:black;font-family:SF Pro,SF Pro Display,SF Pro Text,sans-serif;font-size:13;text-anchor:end;" transform="matrix(1 0 0 1 3036 1933)">Template v.2.0</text>
  <text style="stroke:none;fill:black;font-family:SF Pro,SF Pro Display,SF Pro Text,sans-serif;font-size:13;text-anchor:end;" transform="matrix(1 0 0 1 3036 1951)">Requires Xcode 13 or greater</text>
  <text id="descriptive-name" style="stroke:none;fill:black;font-family:SF Pro,SF Pro Display,SF Pro Text,sans-serif;font-size:13;text-anchor:end;" transform="matrix(1 0 0 1 3036 1969)">Generated from whatsapp-fill</text>
  <text style="stroke:none;fill:black;font-family:SF Pro,SF Pro Display,SF Pro Text,sans-serif;font-size:13;text-anchor:end;" transform="matrix(1 0 0 1 3036 1987)">Typeset at 100 points</text>
  <text style="stroke:none;fill:black;font-family:SF Pro,SF Pro Display,SF Pro Text,sans-serif;font-size:13;" transform="matrix(1 0 0 1 263 726)">Small</text>
  <text style="stroke:none;fill:black;font-family:SF Pro,SF Pro Display,SF Pro Text,sans-serif;font-size:13;" transform="matrix(1 0 0 1 263 1156)">Medium</text>
  <text style="stroke:none;fill:black;font-family:SF Pro,SF Pro Display,SF Pro Text,sans-serif;font-size:13;" transform="matrix(1 0 0 1 263 1586)">Large</text>
 </g>
 <g id="Guides">
  <g id="H-reference" style="fill:#27AAE1;stroke:none;" transform="matrix(1 0 0 1 339 696)">
   <path d="M0.976562 0L3.66211 0L29.3457-67.1387L30.0293-67.1387L30.0293-70.459L28.125-70.459ZM11.6699-24.4629L46.9727-24.4629L46.2402-26.709L12.4512-26.709ZM55.127 0L57.7637 0L30.6152-70.459L29.4434-70.459L29.4434-67.1387Z"/>
  </g>
  <line id="Baseline-S" style="fill:none;stroke:#27AAE1;opacity:1;stroke-width:0.5;" x1="263" x2="3036" y1="696" y2="696"/>
  <line id="Capline-S" style="fill:none;stroke:#27AAE1;opacity:1;stroke-width:0.5;" x1="263" x2="3036" y1="625.541" y2="625.541"/>
  <g id="H-reference" style="fill:#27AAE1;stroke:none;" transform="matrix(1 0 0 1 339 1126)">
   <path d="M0.976562 0L3.66211 0L29.3457-67.1387L30.0293-67.1387L30.0293-70.459L28.125-70.459ZM11.6699-24.4629L46.9727-24.4629L46.2402-26.709L12.4512-26.709ZM55.127 0L57.7637 0L30.6152-70.459L29.4434-70.459L29.4434-67.1387Z"/>
  </g>
  <line id="Baseline-M" style="fill:none;stroke:#27AAE1;opacity:1;stroke-width:0.5;" x1="263" x2="3036" y1="1126" y2="1126"/>
  <line id="Capline-M" style="fill:none;stroke:#27AAE1;opacity:1;stroke-width:0.5;" x1="263" x2="3036" y1="1055.54" y2="1055.54"/>
  <g id="H-reference" style="fill:#27AAE1;stroke:none;" transform="matrix(1 0 0 1 339 1556)">
   <path d="M0.976562 0L3.66211 0L29.3457-67.1387L30.0293-67.1387L30.0293-70.459L28.125-70.459ZM11.6699-24.4629L46.9727-24.4629L46.2402-26.709L12.4512-26.709ZM55.127 0L57.7637 0L30.6152-70.459L29.4434-70.459L29.4434-67.1387Z"/>
  </g>
  <line id="Baseline-L" style="fill:none;stroke:#27AAE1;opacity:1;stroke-width:0.5;" x1="263" x2="3036" y1="1556" y2="1556"/>
  <line id="Capline-L" style="fill:none;stroke:#27AAE1;opacity:1;stroke-width:0.5;" x1="263" x2="3036" y1="1485.54" y2="1485.54"/>
  <line id="left-margin" style="fill:none;stroke:#00AEEF;stroke-width:0.5;opacity:1.0;" x1="1390.84" x2="1390.84" y1="1030.78" y2="1150.12"/>
  <line id="right-margin" style="fill:none;stroke:#00AEEF;stroke-width:0.5;opacity:1.0;" x1="1508.84" x2="1508.84" y1="1030.78" y2="1150.12"/>
 </g>
 <g id="Symbols">
  <g id="Black-L" transform="matrix(1 0 0 1 2853.52 1556)">
   <path d="M79.8769-102.735C117.397-102.735 147.813-72.3197 147.813-34.7993C147.813 2.7212 117.397 33.1369 79.8769 33.1369C67.8513 33.1369 56.5645 29.9996 46.7649 24.5186L12.6019 32.1611L21.2958-0.406643C15.3603-10.4971 11.9407-22.2461 11.9407-34.7993C11.9407-72.3197 42.3567-102.735 79.8769-102.735ZM109.408-13.4791C110.655-16.9525 110.655-19.9299 110.267-20.5585C109.888-21.1625 108.905-21.5335 107.401-22.2794C105.897-23.0252 98.5249-26.6328 97.1433-27.1231C95.7802-27.6134 94.7709-27.8689 93.7883-26.3774C92.7789-24.8858 89.9179-21.5315 89.0251-20.5565C88.1587-19.5552 87.2905-19.4397 85.7865-20.1855C84.2824-20.9312 79.448-22.4916 73.7225-27.5665C69.268-31.4984 66.2622-36.3662 65.394-37.8542C64.525-39.3423 65.2978-40.1568 66.0499-40.9025C66.7322-41.5533 67.5534-42.6234 68.3055-43.4848C69.0308-44.3704 69.2885-44.9764 69.7828-45.9777C70.3015-46.9526 70.0403-47.8382 69.6664-48.584C69.292-49.3298 66.3807-56.6846 65.044-59.6174C63.9201-62.0839 62.7433-62.1549 61.6646-62.1792C60.79-62.2237 59.7806-62.2237 58.7975-62.2237C57.788-62.2237 56.1682-61.8547 54.7866-60.3632C53.4297-58.8716 49.5558-55.2825 49.5558-47.9517C49.5558-40.645 54.9089-33.5641 55.6608-32.589C56.4123-31.5879 66.0326-16.0854 81.2898-10.1248C93.9385-5.18609 96.5212-6.1667 99.2915-6.42222C102.038-6.65922 108.162-10.0112 109.408-13.4791Z"/>
  </g>
  <g id="Heavy-L" transform="matrix(1 0 0 1 2557.76 1556)">
   <path d="M78.9282-101.801C115.924-101.801 145.916-71.8095 145.916-34.8131C145.916 2.18336 115.924 32.1744 78.9282 32.1744C67.0675 32.1744 55.9362 29.0782 46.2721 23.671L12.5888 31.2051L21.1634-0.909831C15.3133-10.8576 11.9407-22.4382 11.9407-34.8131C11.9407-71.8095 41.932-101.801 78.9282-101.801ZM109.062-13.2294C110.329-16.77 110.329-19.8052 109.935-20.4452C109.549-21.0613 108.549-21.4394 107.019-22.1996C105.49-22.9599 97.9899-26.6375 96.5841-27.1374C95.1976-27.6372 94.1709-27.8976 93.171-26.3772C92.1441-24.8568 89.2337-21.4378 88.3253-20.4436C87.4436-19.4231 86.5604-19.3054 85.0305-20.0656C83.5006-20.8258 78.5826-22.4168 72.7577-27.5899C68.2259-31.5985 65.1678-36.561 64.2847-38.0774C63.4008-39.594 64.1868-40.4246 64.9518-41.1847C65.6457-41.8481 66.4814-42.9391 67.2465-43.817C67.9846-44.7199 68.2467-45.3375 68.7496-46.3581C69.2776-47.3522 69.0115-48.255 68.6312-49.0152C68.2506-49.7755 65.289-57.2733 63.9291-60.263C62.7853-62.7775 61.5885-62.8496 60.4909-62.8745C59.6015-62.9201 58.5747-62.9201 57.5744-62.9201C56.5475-62.9201 54.8998-62.5435 53.494-61.0232C52.1135-59.5027 48.1723-55.8443 48.1723-48.3711C48.1723-40.9228 53.6181-33.7045 54.383-32.7103C55.1475-31.6899 64.9348-15.8864 80.4563-9.81035C93.324-4.77569 95.9516-5.77538 98.7698-6.03577C101.564-6.27692 107.794-9.69411 109.062-13.2294Z"/>
  </g>
  <g id="Bold-L" transform="matrix(1 0 0 1 2262.24 1556)">
   <path d="M77.7402-100.628C114.08-100.628 143.54-71.1687 143.54-34.8285C143.54 1.51172 114.08 30.971 77.7402 30.971C66.0846 30.971 55.1473 27.9249 45.652 22.609L12.5706 30.0065L20.9967-1.54227C15.2547-11.3106 11.9407-22.6782 11.9407-34.8285C11.9407-71.1687 41.4002-100.628 77.7402-100.628ZM108.556-12.944C109.848-16.5609 109.848-19.6616 109.446-20.3145C109.053-20.9444 108.033-21.3304 106.473-22.107C104.914-22.8836 97.27-26.6407 95.8368-27.1514C94.4237-27.662 93.3773-27.928 92.3577-26.3748C91.3111-24.8217 88.3446-21.3293 87.4184-20.3135C86.5194-19.271 85.6192-19.151 84.0598-19.9276C82.5005-20.7041 77.4878-22.3296 71.5501-27.6142C66.9306-31.7096 63.813-36.7796 62.9129-38.3282C62.0123-39.877 62.8133-40.7259 63.5929-41.5023C64.2999-42.18 65.1521-43.2948 65.9319-44.1914C66.6846-45.1138 66.9516-45.7446 67.4643-46.7871C68.0028-47.8028 67.7313-48.7252 67.3437-49.5018C66.9561-50.2784 63.9373-57.9384 62.551-60.9924C61.3847-63.5613 60.1651-63.6348 59.0461-63.6604C58.14-63.7071 57.0934-63.7071 56.0736-63.7071C55.0269-63.7071 53.3475-63.322 51.9143-61.769C50.507-60.2158 46.4894-56.4787 46.4894-48.8443C46.4894-41.2354 52.0405-33.8614 52.82-32.8456C53.5994-31.8032 63.5762-15.6586 79.3977-9.45167C92.5141-4.30824 95.1926-5.32956 98.065-5.59548C100.912-5.84133 107.263-9.33247 108.556-12.944Z"/>
  </g>
  <g id="Semibold-L" transform="matrix(1 0 0 1 1966.35 1556)">
   <path d="M76.9212-99.8195C112.809-99.8195 141.902-70.7269 141.902-34.8391C141.902 1.04869 112.809 30.1414 76.9212 30.1414C65.4071 30.1414 54.6034 27.1299 45.2244 21.8769L12.558 29.1801L20.8818-1.97828C15.2143-11.6229 11.9407-22.8438 11.9407-34.8391C11.9407-70.7269 41.0335-99.8195 76.9212-99.8195ZM108.207-12.7473C109.516-16.4167 109.516-19.5626 109.108-20.2245C108.71-20.8638 107.677-21.2552 106.097-22.0431C104.518-22.831 96.7738-26.6429 95.3216-27.161C93.8903-27.6791 92.8302-27.9489 91.7971-26.3732C90.7368-24.7975 87.7316-21.2546 86.7933-20.2238C85.8822-19.1662 84.9703-19.0445 83.3907-19.8324C81.8111-20.6202 76.7331-22.2696 70.7176-27.6309C66.0375-31.7863 62.879-36.9302 61.9672-38.5011C61.0551-40.0721 61.8663-40.9336 62.6561-41.7213C63.3722-42.4087 64.2357-43.5399 65.0256-44.4495C65.7883-45.3854 66.0588-46.0253 66.5782-47.0829C67.1239-48.1135 66.8487-49.0494 66.4561-49.8372C66.0636-50.6251 63.0054-58.3969 61.601-61.4953C60.4192-64.1017 59.1839-64.1761 58.05-64.2022C57.1324-64.2497 56.0722-64.2497 55.0389-64.2497C53.9787-64.2497 52.2774-63.8587 50.8252-62.2831C49.3995-60.7074 45.3292-56.9161 45.3292-49.1704C45.3292-41.4509 50.9528-33.9696 51.7425-32.9388C52.5321-31.8813 62.6396-15.5016 78.6678-9.20439C91.9557-3.98599 94.6693-5.02221 97.5792-5.29194C100.463-5.54103 106.897-9.08316 108.207-12.7473Z"/>
  </g>
  <g id="Medium-L" transform="matrix(1 0 0 1 1670.26 1556)">
   <path d="M76.3002-99.2066C111.845-99.2066 140.66-70.3919 140.66-34.8471C140.66 0.697601 111.845 29.5123 76.3002 29.5123C64.8933 29.5123 54.191 26.527 44.9003 21.3218L12.5485 28.5536L20.7947-2.30887C15.1836-11.8597 11.9407-22.9692 11.9407-34.8471C11.9407-70.3919 40.7555-99.2066 76.3002-99.2066ZM107.942-12.5981C109.264-16.3074 109.264-19.4876 108.852-20.1562C108.451-20.8027 107.407-21.1982 105.812-21.9946C104.217-22.7911 96.3975-26.6446 94.931-27.1683C93.4857-27.692 92.4154-27.9647 91.372-26.3719C90.3014-24.7791 87.2668-21.1979 86.3192-20.1558C85.3991-19.0868 84.4783-18.9638 82.8833-19.7602C81.2884-20.5566 76.1608-22.224 70.0863-27.6436C65.3604-31.8444 62.1708-37.0445 61.2501-38.6322C60.3292-40.2201 61.1483-41.0911 61.9458-41.8873C62.6687-42.5822 63.5408-43.7258 64.3384-44.6452C65.1088-45.5913 65.3819-46.2381 65.9064-47.3071C66.4575-48.3491 66.1794-49.2951 65.7831-50.0915C65.3869-50.888 62.2988-58.7445 60.8806-61.8766C59.687-64.5114 58.4399-64.5865 57.2947-64.613C56.3684-64.6611 55.2979-64.6611 54.2544-64.6611C53.1838-64.6611 51.466-64.2657 49.9994-62.673C48.5597-61.0802 44.4495-57.2478 44.4495-49.4178C44.4495-41.6143 50.1282-34.0516 50.9255-33.0095C51.7229-31.9405 61.9294-15.3825 78.1145-9.0169C91.5323-3.74164 94.2725-4.78917 97.2108-5.06178C100.123-5.31334 106.62-8.89412 107.942-12.5981Z"/>
  </g>
  <g id="Regular-L" transform="matrix(1 0 0 1 1374.35 1556)">
   <path d="M75.4902-98.407C110.588-98.407 139.04-69.955 139.04-34.8576C139.04 0.239662 110.588 28.6918 75.4902 28.6918C64.2232 28.6918 53.6531 25.7407 44.4774 20.5977L12.536 27.7363L20.681-2.74009C15.1437-12.1686 11.9407-23.1329 11.9407-34.8576C11.9407-69.955 40.3929-98.407 75.4902-98.407ZM107.597-12.4035C108.936-16.1648 108.936-19.3896 108.518-20.0671C108.112-20.723 107.055-21.1239 105.44-21.9315C103.825-22.7391 95.9067-26.6468 94.4215-27.1778C92.9581-27.7089 91.8743-27.9854 90.8175-26.3703C89.7335-24.7552 86.6606-21.1239 85.701-20.0671C84.7689-18.9831 83.8365-18.8585 82.2215-19.666C80.6065-20.4736 75.4144-22.1646 69.2629-27.6602C64.4772-31.9202 61.247-37.1935 60.3148-38.8032C59.3825-40.413 60.2118-41.2965 61.0193-42.1039C61.7511-42.8085 62.6345-43.9683 63.4421-44.9005C64.2224-45.8598 64.4989-46.5156 65.03-47.5996C65.5883-48.6563 65.3065-49.6157 64.9053-50.4233C64.5043-51.2309 61.3772-59.1979 59.941-62.374C58.7321-65.0459 57.4694-65.1219 56.3096-65.1489C55.3719-65.1977 54.288-65.1977 53.2311-65.1977C52.1471-65.1977 50.4076-64.7965 48.9223-63.1815C47.4644-61.5664 43.3021-57.6804 43.3021-49.7404C43.3021-41.8275 49.0525-34.1585 49.8599-33.1017C50.6674-32.0177 61.0031-15.2272 77.3927-8.77234C90.9801-3.42293 93.755-4.4852 96.7303-4.76158C99.6786-5.01634 106.259-8.64755 107.597-12.4035Z"/>
  </g>
  <g id="Light-L" transform="matrix(1 0 0 1 1078.55 1556)">
   <path d="M74.5866-97.5034C109.185-97.5034 137.232-69.456 137.232-34.8576C137.232-0.259432 109.185 27.7882 74.5866 27.7882C63.4666 27.7882 53.0388 24.8672 43.9861 19.7862L12.5107 26.8152L20.5483-3.23605C15.1014-12.5233 11.9407-23.313 11.9407-34.8576C11.9407-69.456 39.9883-97.5034 74.5866-97.5034ZM106.754-12.361C108.095-16.1294 108.095-19.3603 107.677-20.0391C107.27-20.6962 106.211-21.0978 104.593-21.907C102.975-22.7162 95.0418-26.6312 93.5537-27.1633C92.0876-27.6954 91.0017-27.9724 89.9429-26.3542C88.8568-24.736 85.7781-21.0978 84.8167-20.0391C83.8828-18.953 82.9489-18.8282 81.3306-19.6372C79.7125-20.4464 74.5106-22.1406 68.3474-27.6466C63.5528-31.9147 60.3164-37.1979 59.3824-38.8107C58.4484-40.4236 59.2793-41.3087 60.0882-42.1176C60.8215-42.8236 61.7065-43.9856 62.5157-44.9195C63.2974-45.8807 63.5743-46.5377 64.1066-47.6238C64.6659-48.6824 64.3836-49.6437 63.9817-50.4528C63.5799-51.262 60.4468-59.244 59.0079-62.4261C57.7967-65.1031 56.5317-65.1793 55.3697-65.2063C54.4302-65.2552 53.3442-65.2552 52.2853-65.2552C51.1993-65.2552 49.4564-64.8532 47.9684-63.2352C46.5078-61.617 42.3374-57.7237 42.3374-49.7685C42.3374-41.8407 48.0988-34.1573 48.9078-33.0984C49.7167-32.0124 60.072-15.19 76.4926-8.72296C90.1057-3.36337 92.8859-4.42766 95.867-4.70456C98.8208-4.95975 105.413-8.59786 106.754-12.361Z"/>
  </g>
  <g id="Thin-L" transform="matrix(1 0 0 1 783.031 1556)">
   <path d="M73.3915-96.3083C107.33-96.3083 134.842-68.7959 134.842-34.8576C134.842-0.919524 107.33 26.5931 73.3915 26.5931C62.466 26.5931 52.2263 23.712 43.3363 18.7129L12.4771 25.5969L20.3727-3.892C15.0454-12.9924 11.9407-23.5511 11.9407-34.8576C11.9407-68.7959 39.4532-96.3083 73.3915-96.3083ZM105.639-12.3047C106.984-16.0825 106.984-19.3216 106.565-20.0021C106.157-20.6608 105.095-21.0633 103.473-21.8746C101.851-22.6858 93.8978-26.6106 92.406-27.1442C90.9363-27.6774 89.8475-27.9552 88.7862-26.3329C87.6974-24.7107 84.6109-21.0633 83.6471-20.0021C82.7109-18.9133 81.7748-18.7881 80.1523-19.5991C78.5301-20.4104 73.3153-22.1088 67.1366-27.6286C62.3301-31.9073 59.0855-37.2037 58.1492-38.8205C57.213-40.4375 58.046-41.3249 58.8568-42.1357C59.5919-42.8435 60.4791-44.0085 61.2903-44.9447C62.0741-45.9083 62.3516-46.5669 62.8853-47.6557C63.4459-48.717 63.1629-49.6807 62.7601-50.4919C62.3573-51.3031 59.2162-59.305 57.7738-62.495C56.5595-65.1788 55.2914-65.2552 54.1265-65.2822C53.1847-65.3312 52.096-65.3312 51.0344-65.3312C49.9458-65.3312 48.1984-64.9283 46.7068-63.3062C45.2426-61.684 41.0616-57.7809 41.0616-49.8058C41.0616-41.8582 46.8374-34.1556 47.6486-33.094C48.4594-32.0052 58.8405-15.1407 75.3022-8.65765C88.9493-3.28459 91.7365-4.35156 94.7251-4.62914C97.6863-4.88491 104.295-8.53214 105.639-12.3047Z"/>
  </g>
  <g id="Ultralight-L" transform="matrix(1 0 0 1 486.932 1556)">
   <path d="M72.7794-95.6961C106.38-95.6961 133.618-68.4579 133.618-34.8576C133.618-1.25762 106.38 25.981 72.7794 25.981C61.9535 25.981 51.8101 23.1202 43.0035 18.1631L12.4599 24.9729L20.2828-4.22798C15.0168-13.2327 11.9407-23.673 11.9407-34.8576C11.9407-68.4579 39.1791-95.6961 72.7794-95.6961ZM105.069-12.2759C106.415-16.0585 106.415-19.3018 105.995-19.9831C105.586-20.6427 104.524-21.0457 102.899-21.858C101.275-22.6703 93.3119-26.6001 91.8182-27.1344C90.3466-27.6682 89.2563-27.9464 88.1938-26.322C87.1036-24.6977 84.0131-21.0457 83.0481-19.9831C82.1106-18.8929 81.1735-18.7675 79.5488-19.5795C77.9245-20.3919 72.7031-22.0925 66.5164-27.6194C61.7038-31.9036 58.4551-37.2067 57.5176-38.8256C56.5802-40.4447 57.4143-41.3332 58.2261-42.145C58.9622-42.8537 59.8505-44.0202 60.6627-44.9576C61.4475-45.9224 61.7253-46.5819 62.2598-47.6721C62.821-48.7347 62.5377-49.6997 62.1344-50.5119C61.7311-51.3241 58.5859-59.3363 57.1416-62.5303C55.9259-65.2176 54.6561-65.294 53.4898-65.3211C52.5468-65.3702 51.4566-65.3702 50.3937-65.3702C49.3038-65.3702 47.554-64.9667 46.0606-63.3426C44.5945-61.7183 40.4081-57.8102 40.4081-49.8249C40.4081-41.8671 46.1913-34.1547 47.0036-33.0918C47.8154-32.0016 58.2098-15.1155 74.6925-8.6242C88.3571-3.24424 91.1478-4.31258 94.1402-4.59051C97.1053-4.84657 103.723-8.49848 105.069-12.2759Z"/>
  </g>
  <g id="Black-M" transform="matrix(1 0 0 1 2870.82 1126)">
   <path d="M62.5769-88.2104C92.0281-88.2104 115.903-64.3359 115.903-34.8845C115.903-5.433 92.0281 18.4415 62.5769 18.4415C53.1383 18.4415 44.2795 15.9797 36.5877 11.6782L9.77107 17.6775L16.5945-7.88562C11.935-15.8067 9.251-25.0302 9.251-34.8845C9.251-64.3359 33.1257-88.2104 62.5769-88.2104ZM84.9472-18.5876C85.8943-21.2217 85.8943-23.4796 85.6002-23.957C85.3113-24.4146 84.5644-24.6962 83.421-25.2619C82.2782-25.8274 76.674-28.5631 75.6241-28.935C74.5878-29.3067 73.8204-29.5006 73.0738-28.3694C72.3064-27.2382 70.1317-24.6942 69.4531-23.955C68.7948-23.1956 68.1348-23.1079 66.9914-23.6734C65.848-24.239 62.1729-25.4222 57.821-29.2707C54.4352-32.2522 52.1506-35.9434 51.4906-37.0722C50.8298-38.2011 51.4174-38.8185 51.9892-39.3841C52.508-39.8776 53.132-40.6889 53.7037-41.3423C54.2548-42.0139 54.4508-42.4735 54.8265-43.233C55.2206-43.9721 55.0223-44.6436 54.738-45.2093C54.4532-45.7749 52.2401-51.3521 51.2241-53.5762C50.3701-55.4466 49.4753-55.5006 48.6556-55.5188C47.9904-55.5525 47.223-55.5525 46.4759-55.5525C45.7084-55.5525 44.4771-55.273 43.4271-54.1418C42.3957-53.0106 39.4512-50.2886 39.4512-44.7294C39.4512-39.1883 43.5203-33.8185 44.092-33.0792C44.6631-32.3199 51.9756-20.5638 63.573-16.0435C73.1877-12.2984 75.1508-13.042 77.2568-13.2358C79.3453-13.4159 83.9995-15.9577 84.9472-18.5876Z"/>
  </g>
  <g id="Heavy-M" transform="matrix(1 0 0 1 2574.96 1126)">
   <path d="M61.7329-87.3798C90.7179-87.3798 114.215-63.8831 114.215-34.8979C114.215-5.91273 90.7179 17.5839 61.7329 17.5839C52.4419 17.5839 43.7221 15.1595 36.1513 10.9245L9.76059 16.828L16.4774-8.33177C11.8929-16.1263 9.251-25.2013 9.251-34.8979C9.251-63.8831 32.7479-87.3798 61.7329-87.3798ZM84.6859-18.3473C85.654-21.0466 85.654-23.3604 85.353-23.8488C85.0582-24.3182 84.2945-24.6065 83.1261-25.1861C81.9581-25.7657 76.2308-28.5692 75.1574-28.9503C74.0985-29.3313 73.3144-29.5299 72.551-28.3708C71.7668-27.2116 69.5442-24.605 68.8506-23.8473C68.1775-23.0692 67.503-22.9794 66.3345-23.559C65.1661-24.1385 61.4104-25.3512 56.9624-29.2949C53.5017-32.3505 51.1666-36.1334 50.4921-37.2898C49.817-38.4461 50.4174-39.0792 51.0016-39.6587C51.5317-40.1644 52.1697-40.996 52.7539-41.6654C53.3174-42.3536 53.5177-42.8245 53.9017-43.6027C54.3047-44.3603 54.1017-45.0485 53.8113-45.6281C53.5204-46.2077 51.2587-51.9233 50.2203-54.2025C49.3471-56.1193 48.4329-56.1744 47.5949-56.1933C46.9154-56.2279 46.1312-56.2279 45.3675-56.2279C44.5832-56.2279 43.3249-55.9411 42.2515-54.782C41.1973-53.6229 38.1878-50.8338 38.1878-45.1368C38.1878-39.4586 42.3465-33.9559 42.9307-33.1981C43.5145-32.4201 50.9883-20.3727 62.8413-15.7407C72.6677-11.9027 74.6742-12.6647 76.8264-12.8633C78.9603-13.0474 83.7175-15.6523 84.6859-18.3473Z"/>
  </g>
  <g id="Bold-M" transform="matrix(1 0 0 1 2279.19 1126)">
   <path d="M60.7886-86.4506C89.2522-86.4506 112.326-63.3766 112.326-34.913C112.326-6.44938 89.2522 16.6246 60.7886 16.6246C51.6629 16.6246 43.0985 14.242 35.6631 10.0814L9.74887 15.8776L16.3463-8.83085C11.8458-16.4839 9.251-25.3927 9.251-34.913C9.251-63.3766 32.3252-86.4506 60.7886-86.4506ZM84.3936-18.0786C85.3851-20.8507 85.3851-23.227 85.0766-23.7278C84.775-24.2103 83.9926-24.5062 82.7962-25.1014C81.6001-25.6966 75.7349-28.5761 74.6354-28.9674C73.5512-29.3588 72.7483-29.5626 71.9662-28.3723C71.1631-27.1819 68.8871-24.5052 68.1766-23.7268C67.4869-22.9278 66.7962-22.8357 65.5998-23.4309C64.4034-24.026 60.5573-25.2718 56.0018-29.3219C52.4576-32.4606 50.0658-36.346 49.3752-37.5331C48.6841-38.7203 49.2987-39.3708 49.8969-39.9659C50.4395-40.4852 51.0932-41.3395 51.6915-42.0268C52.2688-42.7337 52.4738-43.2172 52.8671-44.0162C53.2801-44.7946 53.072-45.5015 52.7746-46.0967C52.477-46.6919 50.1609-52.5624 49.0973-54.903C48.2027-56.8718 47.2668-56.9282 46.4083-56.9477C45.7129-56.9835 44.91-56.9835 44.1276-56.9835C43.3245-56.9835 42.036-56.6885 40.9364-55.4982C39.8568-54.3078 36.7744-51.4436 36.7744-45.5926C36.7744-39.7611 41.0334-34.1096 41.6315-33.3311C42.2295-32.5322 49.8839-20.159 62.0226-15.4019C72.086-11.46 74.141-12.2427 76.3449-12.4466C78.5296-12.6352 83.402-15.3107 84.3936-18.0786Z"/>
  </g>
  <g id="Semibold-M" transform="matrix(1 0 0 1 1983.13 1126)">
   <path d="M60.1377-85.8101C88.2417-85.8101 111.024-63.0274 111.024-34.9234C111.024-6.81934 88.2417 15.9633 60.1377 15.9633C51.1259 15.9633 42.6686 13.6095 35.3265 9.50011L9.74079 15.2224L16.256-9.17491C11.8133-16.7305 9.251-25.5247 9.251-34.9234C9.251-63.0274 32.0338-85.8101 60.1377-85.8101ZM84.1922-17.8933C85.1998-20.7156 85.1998-23.1351 84.886-23.6443C84.5798-24.136 83.7844-24.4371 82.5687-25.043C81.3532-25.649 75.3931-28.5808 74.2756-28.9793C73.1739-29.3777 72.358-29.5852 71.563-28.3734C70.747-27.1614 68.434-24.4365 67.7119-23.6437C67.0108-22.8303 66.3089-22.7367 65.0932-23.3426C63.8775-23.9485 59.9692-25.217 55.3396-29.3406C51.7377-32.5364 49.3069-36.4926 48.6052-37.7009C47.9031-38.9093 48.5275-39.5718 49.1354-40.1776C49.6865-40.7064 50.3511-41.5763 50.959-42.2759C51.5459-42.9957 51.7542-43.4879 52.1539-44.3013C52.5738-45.094 52.362-45.8137 52.0599-46.4197C51.7577-47.0257 49.4041-53.0029 48.3232-55.386C47.4137-57.3906 46.4629-57.4478 45.5903-57.4679C44.884-57.5043 44.068-57.5043 43.2729-57.5043C42.4568-57.5043 41.1475-57.2038 40.0298-55.9919C38.9326-54.78 35.8001-51.864 35.8001-45.9068C35.8001-39.9695 40.1282-34.2155 40.7359-33.4228C41.3436-32.6094 49.1225-20.0116 61.4583-15.1683C71.685-11.1549 73.7734-11.9518 76.013-12.1593C78.2327-12.351 83.1846-15.0752 84.1922-17.8933Z"/>
  </g>
  <g id="Medium-M" transform="matrix(1 0 0 1 1686.91 1126)">
   <path d="M59.6441-85.3244C87.4755-85.3244 110.037-62.7626 110.037-34.9312C110.037-7.09986 87.4755 15.4619 59.6441 15.4619C50.7186 15.4619 42.3426 13.1299 35.0713 9.05938L9.73467 14.7256L16.1875-9.43579C11.7887-16.9174 9.251-25.6248 9.251-34.9312C9.251-62.7626 31.8128-85.3244 59.6441-85.3244ZM84.0394-17.7529C85.0592-20.6132 85.0592-23.0654 84.7415-23.5811C84.4318-24.0796 83.6266-24.3847 82.3963-24.9988C81.1661-25.6129 75.1339-28.5844 74.0027-28.9882C72.8878-29.3921 72.0622-29.6024 71.2573-28.3742C70.4314-27.1459 68.0905-24.3843 67.3596-23.5807C66.6498-22.7564 65.9394-22.6615 64.7091-23.2757C63.4788-23.8898 59.5233-25.1755 54.8375-29.3547C51.1919-32.5939 48.7315-36.6037 48.0213-37.8281C47.3109-39.0526 47.9427-39.7242 48.5579-40.3382C49.1156-40.8741 49.7884-41.7559 50.4036-42.4648C50.9978-43.1944 51.2085-43.6932 51.6131-44.5175C52.0383-45.321 51.8238-46.0505 51.518-46.6646C51.2123-47.2787 48.8302-53.337 47.7362-55.7522C46.8155-57.7839 45.8534-57.8419 44.9701-57.8623C44.2554-57.8993 43.4297-57.8993 42.6247-57.8993C41.7988-57.8993 40.4737-57.5944 39.3424-56.3663C38.2318-55.1381 35.0613-52.1828 35.0613-46.145C35.0613-40.1276 39.4418-34.2958 40.0568-33.4923C40.672-32.668 48.5452-19.8999 61.0304-14.9913C71.3809-10.9235 73.4947-11.7312 75.7613-11.9415C78.0076-12.1355 83.0197-14.8967 84.0394-17.7529Z"/>
  </g>
  <g id="Regular-M" transform="matrix(1 0 0 1 1390.84 1126)">
   <path d="M59.0003-84.6908C86.4762-84.6908 108.75-62.4173 108.75-34.9415C108.75-7.46575 86.4762 14.8078 59.0003 14.8078C50.1875 14.8078 41.9174 12.5043 34.7385 8.4845L9.72667 14.0776L16.0981-9.77607C11.7566-17.1612 9.251-25.7553 9.251-34.9415C9.251-62.4173 31.5246-84.6908 59.0003-84.6908ZM83.8401-17.5696C84.8759-20.4796 84.8759-22.9745 84.553-23.4986C84.2387-24.006 83.4208-24.3163 82.1713-24.941C80.9219-25.5658 74.7959-28.5891 73.6468-28.9999C72.5146-29.4109 71.6762-29.6247 70.8585-28.3752C70.0198-27.1256 67.6425-24.3163 66.9-23.4986C66.179-22.66 65.4575-22.5636 64.2081-23.1884C62.9587-23.8131 58.9417-25.1214 54.1826-29.3731C50.48-32.6689 47.981-36.7487 47.2598-37.994C46.5384-39.2395 47.18-39.923 47.8047-40.5476C48.3709-41.0928 49.0544-41.9901 49.6792-42.7112C50.2829-43.4535 50.4968-43.9609 50.9077-44.7995C51.3397-45.6171 51.1217-46.3593 50.8112-46.984C50.5009-47.6089 48.0817-53.7727 46.9706-56.2299C46.0352-58.297 45.0584-58.3558 44.1611-58.3767C43.4355-58.4144 42.597-58.4144 41.7794-58.4144C40.9406-58.4144 39.5949-58.104 38.4458-56.8546C37.3178-55.6051 34.0977-52.5986 34.0977-46.4557C34.0977-40.3338 38.5465-34.4006 39.1711-33.583C39.7959-32.7444 47.7923-19.7542 60.4722-14.7603C70.9843-10.6217 73.1311-11.4435 75.433-11.6573C77.714-11.8545 82.8046-14.6638 83.8401-17.5696Z"/>
  </g>
  <g id="Light-M" transform="matrix(1 0 0 1 1094.94 1126)">
   <path d="M58.1902-83.8807C85.2186-83.8807 107.129-61.9699 107.129-34.9415C107.129-7.91321 85.2186 13.9977 58.1902 13.9977C49.5092 13.9977 41.3666 11.7212 34.298 7.75694L9.70391 13.2517L15.9791-10.2207C11.7186-17.4792 9.251-25.9167 9.251-34.9415C9.251-61.9699 31.1619-83.8807 58.1902-83.8807ZM83.0845-17.5315C84.1225-20.4478 84.1225-22.9482 83.799-23.4735C83.4839-23.982 82.6643-24.2929 81.4121-24.9191C80.1598-25.5453 74.0204-28.5751 72.8688-28.9869C71.7341-29.3987 70.8938-29.6131 70.0744-28.3607C69.2339-27.1084 66.8513-24.2929 66.1072-23.4735C65.3845-22.633 64.6617-22.5364 63.4094-23.1625C62.1572-23.7887 58.1314-25.0998 53.3618-29.3609C49.6512-32.664 47.1466-36.7526 46.4238-38.0007C45.701-39.249 46.3439-39.934 46.97-40.5599C47.5375-41.1063 48.2224-42.0056 48.8486-42.7283C49.4536-43.4722 49.6679-43.9807 50.0798-44.8211C50.5127-45.6405 50.2942-46.3844 49.9831-47.0105C49.6722-47.6367 47.2475-53.814 46.134-56.2766C45.1966-58.3483 44.2176-58.4072 43.3184-58.4282C42.5913-58.466 41.7508-58.466 40.9314-58.466C40.0909-58.466 38.7421-58.1549 37.5906-56.9027C36.4601-55.6504 33.2328-52.6374 33.2328-46.481C33.2328-40.3457 37.6914-34.3995 38.3175-33.58C38.9435-32.7396 46.9575-19.7208 59.6653-14.716C70.2004-10.5683 72.352-11.3919 74.659-11.6062C76.9449-11.8037 82.0468-14.6192 83.0845-17.5315Z"/>
  </g>
  <g id="Thin-M" transform="matrix(1 0 0 1 799.304 1126)">
   <path d="M57.1187-82.8092C83.5554-82.8092 104.986-61.3781 104.986-34.9415C104.986-8.50502 83.5554 12.9262 57.1187 12.9262C48.6121 12.9262 40.6382 10.6854 33.7155 6.79467L9.67379 12.1594L15.8217-10.8088C11.6685-17.8998 9.251-26.1302 9.251-34.9415C9.251-61.3781 30.6821-82.8092 57.1187-82.8092ZM82.0852-17.481C83.1261-20.4058 83.1261-22.9135 82.8017-23.4403C82.4857-23.9503 81.6639-24.262 80.4079-24.89C79.1519-25.5181 72.9948-28.5567 71.8398-28.9697C70.7019-29.3826 69.859-29.5976 69.0374-28.3416C68.1944-27.0857 65.8048-24.262 65.0587-23.4403C64.3338-22.5974 63.6091-22.5004 62.353-23.1283C61.0971-23.7564 57.0598-25.0713 52.2762-29.3448C48.555-32.6574 46.0431-36.7579 45.3182-38.0096C44.5933-39.2615 45.2382-39.9485 45.866-40.5762C46.4351-41.1242 47.122-42.0261 47.75-42.7509C48.3568-43.4969 48.5717-44.0069 48.9849-44.8498C49.4189-45.6714 49.1998-46.4176 48.8879-47.0455C48.5761-47.6736 46.1442-53.8687 45.0275-56.3384C44.0875-58.4162 43.1056-58.4753 42.2038-58.4962C41.4747-58.5342 40.6317-58.5342 39.8099-58.5342C38.9671-58.5342 37.6143-58.2222 36.4594-56.9664C35.3258-55.7105 32.0889-52.6887 32.0889-46.5144C32.0889-40.3613 36.5605-34.3979 37.1885-33.5761C37.8163-32.7332 45.8534-19.6767 58.5981-14.6575C69.1637-10.4976 71.3215-11.3237 73.6352-11.5386C75.9278-11.7366 81.0444-14.5603 82.0852-17.481Z"/>
  </g>
  <g id="Ultralight-M" transform="matrix(1 0 0 1 503.141 1126)">
   <path d="M56.5699-82.2604C82.7035-82.2604 103.889-61.075 103.889-34.9415C103.889-8.80814 82.7035 12.3774 56.5699 12.3774C48.1527 12.3774 40.265 10.1549 33.4171 6.30181L9.65837 11.6L15.741-11.11C11.6428-18.1152 9.251-26.2395 9.251-34.9415C9.251-61.075 30.4364-82.2604 56.5699-82.2604ZM81.5733-17.4552C82.6158-20.3843 82.6158-22.8957 82.2909-23.4233C81.9743-23.9341 81.1515-24.2461 79.8935-24.8752C78.6356-25.5042 72.4694-28.5472 71.3128-28.9609C70.1732-29.3744 69.329-29.5897 68.5062-28.3319C67.662-27.0741 65.2688-24.2461 64.5216-23.4233C63.7957-22.5791 63.07-22.482 61.8119-23.1108C60.5541-23.7399 56.5109-25.0567 51.7202-29.3365C47.9935-32.654 45.4779-36.7605 44.7519-38.0141C44.026-39.2679 44.6719-39.9559 45.3005-40.5846C45.8705-41.1333 46.5584-42.0366 47.1874-42.7625C47.7951-43.5096 48.0102-44.0203 48.424-44.8645C48.8587-45.6873 48.6392-46.4346 48.327-47.0635C48.0146-47.6924 45.5792-53.8967 44.4608-56.3701C43.5194-58.4509 42.5361-58.5101 41.6329-58.5311C40.9027-58.5691 40.0585-58.5691 39.2355-58.5691C38.3915-58.5691 37.0366-58.2567 35.8801-56.999C34.7448-55.7412 31.5031-52.715 31.5031-46.5315C31.5031-40.3693 35.9813-34.3972 36.6103-33.5741C37.2389-32.7299 45.2879-19.6541 58.0514-14.6275C68.6326-10.4615 70.7937-11.2887 73.1109-11.504C75.4069-11.7022 80.5311-14.5301 81.5733-17.4552Z"/>
  </g>
  <g id="Black-S" transform="matrix(1 0 0 1 2884.15 696)">
   <path d="M49.25-76.9551C72.446-76.9551 91.25-58.1514 91.25-34.9551C91.25-11.7589 72.446 7.04486 49.25 7.04486C41.8159 7.04486 34.8386 5.10583 28.7803 1.7179L7.65942 6.44287L13.0337-13.691C9.36401-19.9296 7.25-27.194 7.25-34.9551C7.25-58.1514 26.054-76.9551 49.25-76.9551ZM66.6082-22.2579C67.3442-24.3029 67.3442-26.0558 67.1157-26.4266C66.8911-26.7818 66.3108-27.0004 65.4221-27.4396C64.5339-27.8787 60.1785-30.0025 59.3625-30.2912C58.5571-30.5798 57.9607-30.7303 57.3806-29.8521C56.7842-28.9739 55.094-26.9987 54.5667-26.4249C54.0552-25.8353 53.5422-25.7672 52.6536-26.2063C51.7649-26.6454 48.9087-27.5638 45.5266-30.5517C42.8953-32.8662 41.1199-35.7318 40.6069-36.6082C40.0933-37.4847 40.55-37.964 40.9944-38.4031C41.3977-38.7863 41.8826-39.416 42.3269-39.9233C42.7551-40.4447 42.9075-40.8016 43.1995-41.3912C43.5056-41.965 43.3516-42.4863 43.1306-42.9254C42.9092-43.3645 41.1892-47.6942 40.3997-49.4209C39.7361-50.8729 39.0405-50.9149 38.4036-50.929C37.8865-50.9551 37.29-50.9551 36.7095-50.9551C36.113-50.9551 35.156-50.7382 34.3401-49.86C33.5386-48.9818 31.2502-46.8685 31.2502-42.5527C31.2502-38.2509 34.4126-34.0822 34.8569-33.5082C35.3008-32.9188 40.9836-23.7921 49.9968-20.2827C57.469-17.3752 58.9946-17.9525 60.6313-18.103C62.2546-18.243 65.8716-20.2162 66.6082-22.2579Z"/>
  </g>
  <g id="Heavy-S" transform="matrix(1 0 0 1 2588.06 696)">
   <path d="M48.6316-76.3483C71.4861-76.3483 90.0133-57.8213 90.0133-34.9666C90.0133-12.112 71.4861 6.41498 48.6316 6.41498C41.307 6.41498 34.4322 4.50445 28.4633 1.16625L7.65337 5.82179L12.9487-14.0157C9.33284-20.1624 7.25-27.3197 7.25-34.9666C7.25-57.8213 25.7771-76.3483 48.6316-76.3483ZM66.4813-22.0573C67.235-24.1572 67.235-25.9572 67.0007-26.3373C66.7711-26.7024 66.1766-26.9267 65.2669-27.3777C64.3576-27.8285 59.8985-30.0095 59.0629-30.306C58.2384-30.6023 57.6279-30.7568 57.0337-29.8551C56.4231-28.9533 54.6927-26.9254 54.1527-26.336C53.6287-25.7307 53.1036-25.6608 52.1939-26.1117C51.2841-26.5625 48.36-27.5059 44.8971-30.5739C42.2029-32.951 40.3849-35.8938 39.8598-36.7934C39.3341-37.6931 39.8016-38.1855 40.2565-38.6364C40.6692-39.0298 41.1659-39.6767 41.6207-40.1975C42.0594-40.7329 42.2153-41.0993 42.5143-41.7046C42.828-42.294 42.67-42.8294 42.4438-43.2803C42.2174-43.7311 40.4565-48.1775 39.648-49.9505C38.9683-51.4417 38.2565-51.4846 37.6041-51.4993C37.075-51.5262 36.4645-51.5262 35.8699-51.5262C35.2593-51.5262 34.2796-51.3031 33.4439-50.4014C32.6232-49.4997 30.2802-47.3298 30.2802-42.8979C30.2802-38.4806 33.518-34.1998 33.9728-33.6103C34.4273-33.0051 40.246-23.6329 49.4741-20.0294C57.1244-17.0436 58.6866-17.6365 60.3622-17.791C62.0237-17.9343 65.7273-19.9607 66.4813-22.0573Z"/>
  </g>
  <g id="Bold-S" transform="matrix(1 0 0 1 2292.04 696)">
   <path d="M47.94-75.6695C70.4125-75.6695 88.63-57.4521 88.63-34.9795C88.63-12.5069 70.4125 5.71048 47.94 5.71048C40.7378 5.71048 33.9777 3.83182 28.1088 0.549255L7.64661 5.12714L12.8536-14.3789C9.29797-20.4227 7.25-27.4603 7.25-34.9795C7.25-57.4521 25.4675-75.6695 47.94-75.6695ZM66.3394-21.8329C67.1127-23.9942 67.1127-25.8469 66.8721-26.2374C66.6368-26.6136 66.0266-26.8443 65.0933-27.3084C64.1603-27.7724 59.5853-30.0174 58.7277-30.3225C57.882-30.6276 57.2557-30.7865 56.6456-29.8585C56.0192-28.9304 54.2438-26.8435 53.6896-26.2366C53.1517-25.6136 52.6129-25.5418 51.6797-26.0059C50.7465-26.4699 47.7464-27.4411 44.1931-30.5988C41.4285-33.0457 39.5629-36.075 39.0242-37.0006C38.485-37.9262 38.9645-38.4333 39.4312-38.8973C39.8544-39.3022 40.3643-39.9682 40.8309-40.5041C41.2813-41.0552 41.4412-41.4322 41.7479-42.0551C42.0701-42.662 41.9077-43.2131 41.6757-43.6771C41.4436-44.1412 39.637-48.718 38.8074-50.5429C38.1096-52.0779 37.3795-52.1219 36.7099-52.1371C36.1674-52.1649 35.5411-52.1649 34.9308-52.1649C34.3044-52.1649 33.2993-51.935 32.4417-51.007C31.5995-50.0789 29.1953-47.8458 29.1953-43.2841C29.1953-38.7375 32.5173-34.3314 32.9839-33.7245C33.4503-33.1016 39.4209-23.4549 48.8894-19.746C56.7391-16.6728 58.342-17.283 60.0611-17.4419C61.7653-17.5891 65.5659-19.675 66.3394-21.8329Z"/>
  </g>
  <g id="Semibold-S" transform="matrix(1 0 0 1 1995.8 696)">
   <path d="M47.4632-75.2016C69.6723-75.2016 87.6763-57.1976 87.6763-34.9884C87.6763-12.7792 69.6723 5.22477 47.4632 5.22477C40.3454 5.22477 33.6644 3.36808 27.8644 0.12387L7.64194 4.64821L12.7881-14.6294C9.27394-20.6022 7.25-27.5573 7.25-34.9884C7.25-57.1976 25.2541-75.2016 47.4632-75.2016ZM66.2415-21.6783C67.0285-23.8818 67.0285-25.7709 66.7835-26.1686C66.5443-26.5524 65.9231-26.7875 64.9736-27.2606C64.0244-27.7337 59.3694-30.0228 58.4966-30.3339C57.6362-30.645 56.9991-30.807 56.3781-29.8608C55.7408-28.9146 53.9344-26.787 53.3704-26.168C52.8229-25.5329 52.2746-25.4598 51.3252-25.9329C50.3758-26.406 47.3233-27.3964 43.7076-30.6159C40.8946-33.1111 38.9961-36.2 38.448-37.1434C37.8997-38.0869 38.3873-38.6041 38.8621-39.0772C39.2926-39.49 39.8116-40.1692 40.2864-40.7154C40.7448-41.2774 40.9074-41.6617 41.2196-42.2968C41.5475-42.9157 41.3822-43.4776 41.1461-43.9507C40.9101-44.4239 39.0719-49.0907 38.2278-50.9514C37.5175-52.5164 36.7749-52.5612 36.0934-52.5768C35.5417-52.6053 34.9045-52.6053 34.2834-52.6053C33.646-52.6053 32.6235-52.3706 31.7506-51.4244C30.8937-50.4782 28.4472-48.2015 28.4472-43.5503C28.4472-38.9146 31.8275-34.4221 32.3021-33.8032C32.7767-33.1681 38.8521-23.3322 48.4863-19.5506C56.4734-16.4171 58.1044-17.0393 59.8535-17.2013C61.5872-17.351 65.4546-19.478 66.2415-21.6783Z"/>
  </g>
  <g id="Medium-S" transform="matrix(1 0 0 1 1699.45 696)">
   <path d="M47.1016-74.8467C69.1111-74.8467 86.9532-57.0046 86.9532-34.9951C86.9532-12.9856 69.1111 4.85648 47.1016 4.85648C40.0478 4.85648 33.4267 3.01645 27.6791-0.198674L7.6384 4.28507L12.7384-14.8192C9.25571-20.7383 7.25-27.6308 7.25-34.9951C7.25-57.0046 25.0922-74.8467 47.1016-74.8467ZM66.1673-21.561C66.9646-23.7966 66.9646-25.7133 66.7162-26.1163C66.4741-26.5059 65.8446-26.7444 64.8829-27.2244C63.9212-27.7044 59.2057-30.0269 58.3214-30.3425C57.4498-30.6582 56.8045-30.8225 56.1752-29.8626C55.5297-28.9026 53.6997-26.7441 53.1283-26.116C52.5735-25.4717 52.0181-25.3976 51.0564-25.8776C50.0947-26.3576 47.0025-27.3625 43.3396-30.6289C40.4897-33.1606 38.5664-36.2947 38.0112-37.2517C37.4558-38.2087 37.9497-38.7336 38.4307-39.2136C38.8666-39.6324 39.3925-40.3216 39.8735-40.8757C40.338-41.4459 40.5027-41.8358 40.8189-42.4801C41.1513-43.1081 40.9837-43.6782 40.7446-44.1582C40.5056-44.6382 38.6435-49.3733 37.7883-51.261C37.0686-52.849 36.3165-52.8943 35.626-52.9102C35.0672-52.9392 34.4217-52.9392 33.7925-52.9392C33.1468-52.9392 32.111-52.7009 31.2267-51.741C30.3585-50.781 27.8801-48.4712 27.8801-43.7521C27.8801-39.0489 31.3044-34.4909 31.7851-33.8628C32.266-33.2186 38.4207-23.2391 48.1807-19.4025C56.2719-16.2232 57.9243-16.8545 59.6961-17.0188C61.4522-17.1705 65.3702-19.3286 66.1673-21.561Z"/>
  </g>
  <g id="Regular-S" transform="matrix(1 0 0 1 1403.21 696)">
   <path d="M46.63-74.3839C68.379-74.3839 86.01-56.7529 86.01-35.0039C86.01-13.2549 68.379 4.3761 46.63 4.3761C39.6597 4.3761 33.1168 2.5578 27.4374-0.619385L7.63379 3.8114L12.6736-15.0669C9.23193-20.9158 7.25-27.7267 7.25-35.0039C7.25-56.7529 24.8811-74.3839 46.63-74.3839ZM66.0706-21.408C66.8812-23.6855 66.8812-25.6381 66.6285-26.0482C66.3826-26.4454 65.7423-26.6882 64.7645-27.1771C63.7867-27.6661 58.9922-30.0322 58.0929-30.3538C57.2068-30.6754 56.5507-30.8428 55.9106-29.8649C55.2543-28.8869 53.3937-26.6882 52.8126-26.0482C52.2483-25.3919 51.6836-25.3165 50.7058-25.8055C49.728-26.2944 46.5841-27.3183 42.8595-30.6459C39.9617-33.2253 38.0059-36.4183 37.4414-37.3929C36.8768-38.3677 37.3789-38.9026 37.8679-39.3915C38.311-39.8181 38.8459-40.5204 39.335-41.0848C39.8074-41.6657 39.9749-42.0628 40.2964-42.7191C40.6345-43.359 40.4639-43.9399 40.2208-44.4288C39.978-44.9178 38.0847-49.7419 37.2151-51.665C36.483-53.2828 35.7185-53.3288 35.0162-53.3452C34.4484-53.3747 33.7921-53.3747 33.1522-53.3747C32.4957-53.3747 31.4426-53.1318 30.5432-52.1539C29.6604-51.176 27.1403-48.823 27.1403-44.0154C27.1403-39.2241 30.6221-34.5806 31.1108-33.9407C31.5999-33.2844 37.8582-23.1177 47.782-19.2093C56.0092-15.9703 57.6893-16.6135 59.4908-16.7808C61.276-16.9351 65.2601-19.1338 66.0706-21.408Z"/>
  </g>
  <g id="Light-S" transform="matrix(1 0 0 1 1107.22 696)">
   <path d="M45.9134-73.6672C67.2666-73.6672 84.5767-56.3571 84.5767-35.0039C84.5767-13.6508 67.2666 3.65944 45.9134 3.65944C39.0597 3.65944 32.6296 1.86503 27.0477-1.263L7.61365 3.08083L12.5683-15.4602C9.19838-21.1971 7.25-27.8695 7.25-35.0039C7.25-56.3571 24.5602-73.6672 45.9134-73.6672ZM65.4021-21.3743C66.2148-23.6574 66.2148-25.6148 65.9615-26.026C65.7149-26.4242 65.0732-26.6675 64.0929-27.1577C63.1126-27.6479 58.3062-30.0199 57.4047-30.3423C56.5164-30.6647 55.8585-30.8325 55.217-29.8521C54.559-28.8717 52.6938-26.6675 52.1113-26.026C51.5455-25.3681 50.9796-25.2924 49.9992-25.7826C49.019-26.2728 45.8673-27.2992 42.1334-30.6351C39.2285-33.2209 37.2678-36.4218 36.7019-37.3989C36.136-38.376 36.6393-38.9123 37.1295-39.4024C37.5737-39.8301 38.1099-40.5341 38.6002-41.0999C39.0738-41.6823 39.2416-42.0803 39.564-42.7383C39.9029-43.3797 39.7319-43.9621 39.4883-44.4523C39.2449-44.9425 37.3468-49.7785 36.475-51.7063C35.7412-53.3282 34.9748-53.3743 34.2708-53.3907C33.7015-53.4203 33.0436-53.4203 32.4021-53.4203C31.7441-53.4203 30.6882-53.1768 29.7867-52.1965C28.9017-51.2161 26.3752-48.8573 26.3752-44.0377C26.3752-39.2346 29.8657-34.5795 30.3557-33.938C30.8459-33.2801 37.1197-23.0882 47.0682-19.1701C55.3157-15.923 57.0001-16.5678 58.8061-16.7356C60.5957-16.8902 64.5897-19.0944 65.4021-21.3743Z"/>
  </g>
  <g id="Thin-S" transform="matrix(1 0 0 1 811.457 696)">
   <path d="M44.9655-72.7194C65.7952-72.7194 82.681-55.8336 82.681-35.0039C82.681-14.1743 65.7952 2.71161 44.9655 2.71161C38.2661 2.71161 31.9852 0.948788 26.5324-2.11423L7.58701 2.11459L12.429-15.9805C9.15401-21.5692 7.25-28.0583 7.25-35.0039C7.25-55.8336 24.1358-72.7194 44.9655-72.7194ZM64.5181-21.3296C65.3334-23.6202 65.3334-25.5841 65.0793-25.9967C64.8318-26.3961 64.1882-26.6402 63.2045-27.132C62.2209-27.6239 57.3989-30.0036 56.4944-30.3271C55.6033-30.6504 54.9432-30.8188 54.2996-29.8352C53.6395-28.8516 51.7681-26.6402 51.1837-25.9967C50.6161-25.3365 50.0485-25.2606 49.0648-25.7524C48.0812-26.2442 44.9193-27.274 41.1731-30.6208C38.2588-33.2151 36.2916-36.4264 35.7239-37.4067C35.1562-38.3871 35.6612-38.9251 36.1529-39.4168C36.5986-39.8459 37.1365-40.5522 37.6284-41.1199C38.1036-41.7041 38.2719-42.1035 38.5954-42.7636C38.9353-43.4071 38.7638-43.9914 38.5195-44.4832C38.2753-44.9751 36.3708-49.8268 35.4962-51.761C34.76-53.3882 33.9911-53.4345 33.2848-53.4509C32.7138-53.4806 32.0536-53.4806 31.41-53.4806C30.7499-53.4806 29.6905-53.2363 28.7861-52.2528C27.8982-51.2692 25.3633-48.9027 25.3633-44.0673C25.3633-39.2485 28.8653-34.5782 29.357-33.9346C29.8487-33.2744 36.143-23.0492 46.1241-19.1183C54.3986-15.8606 56.0885-16.5075 57.9005-16.6758C59.696-16.8309 63.7031-19.0423 64.5181-21.3296Z"/>
  </g>
  <g id="Ultralight-S" transform="matrix(1 0 0 1 515.231 696)">
   <path d="M44.48-72.2339C65.0416-72.2339 81.71-55.5655 81.71-35.0039C81.71-14.4424 65.0416 2.22614 44.48 2.22614C37.8596 2.22614 31.6551 0.479492 26.2684-2.55023L7.57336 1.61969L12.3577-16.2469C9.13129-21.7598 7.25-28.155 7.25-35.0039C7.25-55.5655 23.9185-72.2339 44.48-72.2339ZM64.0653-21.3068C64.8819-23.6011 64.8819-25.5684 64.6274-25.9816C64.3795-26.3817 63.7349-26.6262 62.7495-27.1189C61.7642-27.6116 56.9342-29.9952 56.0282-30.3193C55.1356-30.6431 54.4743-30.8118 53.8298-29.8265C53.1685-28.8413 51.2939-26.6262 50.7086-25.9816C50.14-25.3204 49.5715-25.2443 48.5861-25.7369C47.6009-26.2296 44.4338-27.2611 40.6812-30.6135C37.7621-33.2121 35.7916-36.4288 35.2229-37.4107C34.6543-38.3928 35.1602-38.9317 35.6526-39.4241C36.0991-39.854 36.6379-40.5615 37.1306-41.1301C37.6066-41.7153 37.7751-42.1154 38.0993-42.7766C38.4398-43.4211 38.2679-44.0065 38.0233-44.4991C37.7786-44.9918 35.8709-49.8516 34.9949-51.789C34.2574-53.4189 33.4872-53.4653 32.7798-53.4818C32.2078-53.5115 31.5466-53.5115 30.9019-53.5115C30.2407-53.5115 29.1794-53.2668 28.2736-52.2817C27.3843-51.2964 24.845-48.926 24.845-44.0824C24.845-39.2556 28.3528-34.5775 28.8455-33.9328C29.338-33.2715 35.6428-23.0292 45.6405-19.0918C53.9288-15.8286 55.6216-16.4766 57.4366-16.6451C59.2351-16.8005 63.2489-19.0156 64.0653-21.3068Z"/>
  </g>
 </g>
</svg>
